<svg xmlns="http://www.w3.org/2000/svg" xmlns:xlink="http://www.w3.org/1999/xlink" width="1040" height="257.1"><rect width="1040" height="257.1" rx="0" ry="0" class="a"></rect><svg height="217.10000000000002" viewBox="0 0 100 21.71" width="1000" x="20" xmlns="http://www.w3.org/2000/svg" xmlns:xlink="http://www.w3.org/1999/xlink" y="20"><style>.a{fill:rgb(204,204,204)}.b{font-family:'Fira Code',Monaco,Consolas,Menlo,'Bitstream Vera Sans Mono','Powerline Symbols',monospace}.c{fill:rgb(18,19,20);white-space:pre}.d{fill:transparent}.f{animation-duration:5.38303443044929s;animation-iteration-count:infinite;animation-name:e;animation-timing-function:steps(1,end)}@keyframes e{0%{transform:translateX(-0px)}0%{transform:translateX(-100px)}1.2%{transform:translateX(-200px)}1.7%{transform:translateX(-300px)}2.8%{transform:translateX(-400px)}3.5%{transform:translateX(-500px)}4.8%{transform:translateX(-600px)}5.8%{transform:translateX(-700px)}6.9%{transform:translateX(-800px)}8%{transform:translateX(-900px)}9.2%{transform:translateX(-1000px)}9.8%{transform:translateX(-1100px)}11%{transform:translateX(-1200px)}11.8%{transform:translateX(-1300px)}12.8%{transform:translateX(-1400px)}13.6%{transform:translateX(-1500px)}14.9%{transform:translateX(-1600px)}15.6%{transform:translateX(-1700px)}16.7%{transform:translateX(-1800px)}17.7%{transform:translateX(-1900px)}19%{transform:translateX(-2000px)}19.7%{transform:translateX(-2100px)}20.3%{transform:translateX(-2200px)}21.1%{transform:translateX(-2300px)}22.5%{transform:translateX(-2400px)}23.2%{transform:translateX(-2500px)}23.9%{transform:translateX(-2600px)}24.3%{transform:translateX(-2700px)}25.2%{transform:translateX(-2800px)}26.2%{transform:translateX(-2900px)}27.5%{transform:translateX(-3000px)}28.2%{transform:translateX(-3100px)}28.2%{transform:translateX(-3200px)}28.2%{transform:translateX(-3300px)}28.8%{transform:translateX(-3400px)}29.6%{transform:translateX(-3500px)}30.9%{transform:translateX(-3600px)}31.5%{transform:translateX(-3700px)}32.7%{transform:translateX(-3800px)}33.7%{transform:translateX(-3900px)}35.1%{transform:translateX(-4000px)}35.8%{transform:translateX(-4100px)}36.8%{transform:translateX(-4200px)}38.1%{transform:translateX(-4300px)}39.2%{transform:translateX(-4400px)}39.8%{transform:translateX(-4500px)}40.5%{transform:translateX(-4600px)}41.2%{transform:translateX(-4700px)}42.1%{transform:translateX(-4800px)}42.8%{transform:translateX(-4900px)}43.7%{transform:translateX(-5000px)}44.3%{transform:translateX(-5100px)}44.3%{transform:translateX(-5200px)}44.3%{transform:translateX(-5300px)}44.3%{transform:translateX(-5400px)}44.3%{transform:translateX(-5500px)}44.3%{transform:translateX(-5600px)}44.3%{transform:translateX(-5700px)}44.3%{transform:translateX(-5800px)}44.3%{transform:translateX(-5900px)}44.3%{transform:translateX(-6000px)}44.3%{transform:translateX(-6100px)}44.3%{transform:translateX(-6200px)}44.3%{transform:translateX(-6300px)}44.3%{transform:translateX(-6400px)}100%{transform:translateX(-6500px)}}</style><g font-family="&#x27;Fira Code&#x27;,Monaco,Consolas,Menlo,&#x27;Bitstream Vera Sans Mono&#x27;,&#x27;Powerline Symbols&#x27;,monospace" font-size="1.67" class="b"><defs><symbol id="1"><text x="0" y="1.67" class="c">&gt;</text></symbol><symbol id="2"><text x="0" y="1.67" class="c">&gt;</text><text x="2.004" y="1.67" class="c">#</text></symbol><symbol id="3"><text x="0" y="1.67" class="c">&gt;</text><text x="2.004" y="1.67" class="c">#</text><text x="4.008" y="1.67" class="c">This</text></symbol><symbol id="4"><text x="0" y="1.67" class="c">&gt;</text><text x="2.004" y="1.67" class="c">#</text><text x="4.008" y="1.67" class="c">This</text><text x="9.017999999999999" y="1.67" class="c">is</text></symbol><symbol id="5"><text x="0" y="1.67" class="c">&gt;</text><text x="2.004" y="1.67" class="c">#</text><text x="4.008" y="1.67" class="c">This</text><text x="9.017999999999999" y="1.67" class="c">is</text><text x="12.024" y="1.67" class="c">an</text></symbol><symbol id="6"><text x="0" y="1.67" class="c">&gt;</text><text x="2.004" y="1.67" class="c">#</text><text x="4.008" y="1.67" class="c">This</text><text x="9.017999999999999" y="1.67" class="c">is</text><text x="12.024" y="1.67" class="c">an</text><text x="15.029999999999998" y="1.67" class="c">asciicast</text></symbol><symbol id="7"><text x="0" y="1.67" class="c">&gt;</text><text x="2.004" y="1.67" class="c">#</text><text x="4.008" y="1.67" class="c">This</text><text x="9.017999999999999" y="1.67" class="c">is</text><text x="12.024" y="1.67" class="c">an</text><text x="15.029999999999998" y="1.67" class="c">asciicast</text><text x="25.05" y="1.67" class="c">example</text></symbol><symbol id="8"><text x="0" y="1.67" class="c">&gt;</text><text x="2.004" y="1.67" class="c">loadedNamespaces()</text></symbol><symbol id="9"><text x="0" y="1.67" class="c">[1]</text><text x="4.008" y="1.67" class="c">&quot;compiler&quot;</text><text x="16.032" y="1.67" class="c">&quot;graphics&quot;</text><text x="28.055999999999997" y="1.67" class="c">&quot;utils&quot;</text><text x="40.08" y="1.67" class="c">&quot;grDevices&quot;</text><text x="52.104" y="1.67" class="c">&quot;stats&quot;</text><text x="64.128" y="1.67" class="c">&quot;datasets&quot;</text></symbol><symbol id="10"><text x="0" y="1.67" class="c">[7]</text><text x="4.008" y="1.67" class="c">&quot;methods&quot;</text><text x="16.032" y="1.67" class="c">&quot;base&quot;</text></symbol><symbol id="a"><rect height="11" width="100" x="0" y="0" class="d"></rect></symbol></defs><rect height="21.71" width="100" class="a"></rect><g class="f"><svg x="0" y="0" width="6600"><svg x="0"><use xlink:href="#a"></use></svg><svg x="100"><use xlink:href="#a"></use><use xlink:href="#1" y="0"></use></svg><svg x="200"><use xlink:href="#a"></use><use xlink:href="#2" y="0"></use></svg><svg x="300"><use xlink:href="#a"></use><use xlink:href="#2" y="0"></use></svg><svg x="400"><use xlink:href="#a"></use><text x="0" y="1.67" class="c">&gt;</text><text x="2.004" y="1.67" class="c">#</text><text x="4.008" y="1.67" class="c">T</text></svg><svg x="500"><use xlink:href="#a"></use><text x="0" y="1.67" class="c">&gt;</text><text x="2.004" y="1.67" class="c">#</text><text x="4.008" y="1.67" class="c">Th</text></svg><svg x="600"><use xlink:href="#a"></use><text x="0" y="1.67" class="c">&gt;</text><text x="2.004" y="1.67" class="c">#</text><text x="4.008" y="1.67" class="c">Thi</text></svg><svg x="700"><use xlink:href="#a"></use><use xlink:href="#3" y="0"></use></svg><svg x="800"><use xlink:href="#a"></use><use xlink:href="#3" y="0"></use></svg><svg x="900"><use xlink:href="#a"></use><text x="0" y="1.67" class="c">&gt;</text><text x="2.004" y="1.67" class="c">#</text><text x="4.008" y="1.67" class="c">This</text><text x="9.017999999999999" y="1.67" class="c">i</text></svg><svg x="1000"><use xlink:href="#a"></use><use xlink:href="#4" y="0"></use></svg><svg x="1100"><use xlink:href="#a"></use><use xlink:href="#4" y="0"></use></svg><svg x="1200"><use xlink:href="#a"></use><text x="0" y="1.67" class="c">&gt;</text><text x="2.004" y="1.67" class="c">#</text><text x="4.008" y="1.67" class="c">This</text><text x="9.017999999999999" y="1.67" class="c">is</text><text x="12.024" y="1.67" class="c">a</text></svg><svg x="1300"><use xlink:href="#a"></use><use xlink:href="#5" y="0"></use></svg><svg x="1400"><use xlink:href="#a"></use><use xlink:href="#5" y="0"></use></svg><svg x="1500"><use xlink:href="#a"></use><text x="0" y="1.67" class="c">&gt;</text><text x="2.004" y="1.67" class="c">#</text><text x="4.008" y="1.67" class="c">This</text><text x="9.017999999999999" y="1.67" class="c">is</text><text x="12.024" y="1.67" class="c">an</text><text x="15.029999999999998" y="1.67" class="c">a</text></svg><svg x="1600"><use xlink:href="#a"></use><text x="0" y="1.67" class="c">&gt;</text><text x="2.004" y="1.67" class="c">#</text><text x="4.008" y="1.67" class="c">This</text><text x="9.017999999999999" y="1.67" class="c">is</text><text x="12.024" y="1.67" class="c">an</text><text x="15.029999999999998" y="1.67" class="c">as</text></svg><svg x="1700"><use xlink:href="#a"></use><text x="0" y="1.67" class="c">&gt;</text><text x="2.004" y="1.67" class="c">#</text><text x="4.008" y="1.67" class="c">This</text><text x="9.017999999999999" y="1.67" class="c">is</text><text x="12.024" y="1.67" class="c">an</text><text x="15.029999999999998" y="1.67" class="c">asc</text></svg><svg x="1800"><use xlink:href="#a"></use><text x="0" y="1.67" class="c">&gt;</text><text x="2.004" y="1.67" class="c">#</text><text x="4.008" y="1.67" class="c">This</text><text x="9.017999999999999" y="1.67" class="c">is</text><text x="12.024" y="1.67" class="c">an</text><text x="15.029999999999998" y="1.67" class="c">asci</text></svg><svg x="1900"><use xlink:href="#a"></use><text x="0" y="1.67" class="c">&gt;</text><text x="2.004" y="1.67" class="c">#</text><text x="4.008" y="1.67" class="c">This</text><text x="9.017999999999999" y="1.67" class="c">is</text><text x="12.024" y="1.67" class="c">an</text><text x="15.029999999999998" y="1.67" class="c">ascii</text></svg><svg x="2000"><use xlink:href="#a"></use><text x="0" y="1.67" class="c">&gt;</text><text x="2.004" y="1.67" class="c">#</text><text x="4.008" y="1.67" class="c">This</text><text x="9.017999999999999" y="1.67" class="c">is</text><text x="12.024" y="1.67" class="c">an</text><text x="15.029999999999998" y="1.67" class="c">asciic</text></svg><svg x="2100"><use xlink:href="#a"></use><text x="0" y="1.67" class="c">&gt;</text><text x="2.004" y="1.67" class="c">#</text><text x="4.008" y="1.67" class="c">This</text><text x="9.017999999999999" y="1.67" class="c">is</text><text x="12.024" y="1.67" class="c">an</text><text x="15.029999999999998" y="1.67" class="c">asciica</text></svg><svg x="2200"><use xlink:href="#a"></use><text x="0" y="1.67" class="c">&gt;</text><text x="2.004" y="1.67" class="c">#</text><text x="4.008" y="1.67" class="c">This</text><text x="9.017999999999999" y="1.67" class="c">is</text><text x="12.024" y="1.67" class="c">an</text><text x="15.029999999999998" y="1.67" class="c">asciicas</text></svg><svg x="2300"><use xlink:href="#a"></use><use xlink:href="#6" y="0"></use></svg><svg x="2400"><use xlink:href="#a"></use><use xlink:href="#6" y="0"></use></svg><svg x="2500"><use xlink:href="#a"></use><text x="0" y="1.67" class="c">&gt;</text><text x="2.004" y="1.67" class="c">#</text><text x="4.008" y="1.67" class="c">This</text><text x="9.017999999999999" y="1.67" class="c">is</text><text x="12.024" y="1.67" class="c">an</text><text x="15.029999999999998" y="1.67" class="c">asciicast</text><text x="25.05" y="1.67" class="c">e</text></svg><svg x="2600"><use xlink:href="#a"></use><text x="0" y="1.67" class="c">&gt;</text><text x="2.004" y="1.67" class="c">#</text><text x="4.008" y="1.67" class="c">This</text><text x="9.017999999999999" y="1.67" class="c">is</text><text x="12.024" y="1.67" class="c">an</text><text x="15.029999999999998" y="1.67" class="c">asciicast</text><text x="25.05" y="1.67" class="c">ex</text></svg><svg x="2700"><use xlink:href="#a"></use><text x="0" y="1.67" class="c">&gt;</text><text x="2.004" y="1.67" class="c">#</text><text x="4.008" y="1.67" class="c">This</text><text x="9.017999999999999" y="1.67" class="c">is</text><text x="12.024" y="1.67" class="c">an</text><text x="15.029999999999998" y="1.67" class="c">asciicast</text><text x="25.05" y="1.67" class="c">exa</text></svg><svg x="2800"><use xlink:href="#a"></use><text x="0" y="1.67" class="c">&gt;</text><text x="2.004" y="1.67" class="c">#</text><text x="4.008" y="1.67" class="c">This</text><text x="9.017999999999999" y="1.67" class="c">is</text><text x="12.024" y="1.67" class="c">an</text><text x="15.029999999999998" y="1.67" class="c">asciicast</text><text x="25.05" y="1.67" class="c">exam</text></svg><svg x="2900"><use xlink:href="#a"></use><text x="0" y="1.67" class="c">&gt;</text><text x="2.004" y="1.67" class="c">#</text><text x="4.008" y="1.67" class="c">This</text><text x="9.017999999999999" y="1.67" class="c">is</text><text x="12.024" y="1.67" class="c">an</text><text x="15.029999999999998" y="1.67" class="c">asciicast</text><text x="25.05" y="1.67" class="c">examp</text></svg><svg x="3000"><use xlink:href="#a"></use><text x="0" y="1.67" class="c">&gt;</text><text x="2.004" y="1.67" class="c">#</text><text x="4.008" y="1.67" class="c">This</text><text x="9.017999999999999" y="1.67" class="c">is</text><text x="12.024" y="1.67" class="c">an</text><text x="15.029999999999998" y="1.67" class="c">asciicast</text><text x="25.05" y="1.67" class="c">exampl</text></svg><svg x="3100"><use xlink:href="#a"></use><use xlink:href="#7" y="0"></use></svg><svg x="3200"><use xlink:href="#a"></use><use xlink:href="#7" y="0"></use></svg><svg x="3300"><use xlink:href="#a"></use><use xlink:href="#7" y="0"></use><use xlink:href="#1" y="2.171"></use></svg><svg x="3400"><use xlink:href="#a"></use><use xlink:href="#7" y="0"></use><text x="0" y="3.8409999999999997" class="c">&gt;</text><text x="2.004" y="3.8409999999999997" class="c">l</text></svg><svg x="3500"><use xlink:href="#a"></use><use xlink:href="#7" y="0"></use><text x="0" y="3.8409999999999997" class="c">&gt;</text><text x="2.004" y="3.8409999999999997" class="c">lo</text></svg><svg x="3600"><use xlink:href="#a"></use><use xlink:href="#7" y="0"></use><text x="0" y="3.8409999999999997" class="c">&gt;</text><text x="2.004" y="3.8409999999999997" class="c">loa</text></svg><svg x="3700"><use xlink:href="#a"></use><use xlink:href="#7" y="0"></use><text x="0" y="3.8409999999999997" class="c">&gt;</text><text x="2.004" y="3.8409999999999997" class="c">load</text></svg><svg x="3800"><use xlink:href="#a"></use><use xlink:href="#7" y="0"></use><text x="0" y="3.8409999999999997" class="c">&gt;</text><text x="2.004" y="3.8409999999999997" class="c">loade</text></svg><svg x="3900"><use xlink:href="#a"></use><use xlink:href="#7" y="0"></use><text x="0" y="3.8409999999999997" class="c">&gt;</text><text x="2.004" y="3.8409999999999997" class="c">loaded</text></svg><svg x="4000"><use xlink:href="#a"></use><use xlink:href="#7" y="0"></use><text x="0" y="3.8409999999999997" class="c">&gt;</text><text x="2.004" y="3.8409999999999997" class="c">loadedN</text></svg><svg x="4100"><use xlink:href="#a"></use><use xlink:href="#7" y="0"></use><text x="0" y="3.8409999999999997" class="c">&gt;</text><text x="2.004" y="3.8409999999999997" class="c">loadedNa</text></svg><svg x="4200"><use xlink:href="#a"></use><use xlink:href="#7" y="0"></use><text x="0" y="3.8409999999999997" class="c">&gt;</text><text x="2.004" y="3.8409999999999997" class="c">loadedNam</text></svg><svg x="4300"><use xlink:href="#a"></use><use xlink:href="#7" y="0"></use><text x="0" y="3.8409999999999997" class="c">&gt;</text><text x="2.004" y="3.8409999999999997" class="c">loadedName</text></svg><svg x="4400"><use xlink:href="#a"></use><use xlink:href="#7" y="0"></use><text x="0" y="3.8409999999999997" class="c">&gt;</text><text x="2.004" y="3.8409999999999997" class="c">loadedNames</text></svg><svg x="4500"><use xlink:href="#a"></use><use xlink:href="#7" y="0"></use><text x="0" y="3.8409999999999997" class="c">&gt;</text><text x="2.004" y="3.8409999999999997" class="c">loadedNamesp</text></svg><svg x="4600"><use xlink:href="#a"></use><use xlink:href="#7" y="0"></use><text x="0" y="3.8409999999999997" class="c">&gt;</text><text x="2.004" y="3.8409999999999997" class="c">loadedNamespa</text></svg><svg x="4700"><use xlink:href="#a"></use><use xlink:href="#7" y="0"></use><text x="0" y="3.8409999999999997" class="c">&gt;</text><text x="2.004" y="3.8409999999999997" class="c">loadedNamespac</text></svg><svg x="4800"><use xlink:href="#a"></use><use xlink:href="#7" y="0"></use><text x="0" y="3.8409999999999997" class="c">&gt;</text><text x="2.004" y="3.8409999999999997" class="c">loadedNamespace</text></svg><svg x="4900"><use xlink:href="#a"></use><use xlink:href="#7" y="0"></use><text x="0" y="3.8409999999999997" class="c">&gt;</text><text x="2.004" y="3.8409999999999997" class="c">loadedNamespaces</text></svg><svg x="5000"><use xlink:href="#a"></use><use xlink:href="#7" y="0"></use><text x="0" y="3.8409999999999997" class="c">&gt;</text><text x="2.004" y="3.8409999999999997" class="c">loadedNamespaces(</text></svg><svg x="5100"><use xlink:href="#a"></use><use xlink:href="#7" y="0"></use><use xlink:href="#8" y="2.171"></use></svg><svg x="5200"><use xlink:href="#a"></use><use xlink:href="#7" y="0"></use><use xlink:href="#8" y="2.171"></use></svg><svg x="5300"><use xlink:href="#a"></use><use xlink:href="#7" y="0"></use><use xlink:href="#8" y="2.171"></use><text x="0" y="6.012" class="c">[1]</text></svg><svg x="5400"><use xlink:href="#a"></use><use xlink:href="#7" y="0"></use><use xlink:href="#8" y="2.171"></use><text x="0" y="6.012" class="c">[1]</text><text x="4.008" y="6.012" class="c">&quot;compiler&quot;</text></svg><svg x="5500"><use xlink:href="#a"></use><use xlink:href="#7" y="0"></use><use xlink:href="#8" y="2.171"></use><text x="0" y="6.012" class="c">[1]</text><text x="4.008" y="6.012" class="c">&quot;compiler&quot;</text><text x="16.032" y="6.012" class="c">&quot;graphics&quot;</text></svg><svg x="5600"><use xlink:href="#a"></use><use xlink:href="#7" y="0"></use><use xlink:href="#8" y="2.171"></use><text x="0" y="6.012" class="c">[1]</text><text x="4.008" y="6.012" class="c">&quot;compiler&quot;</text><text x="16.032" y="6.012" class="c">&quot;graphics&quot;</text><text x="28.055999999999997" y="6.012" class="c">&quot;utils&quot;</text></svg><svg x="5700"><use xlink:href="#a"></use><use xlink:href="#7" y="0"></use><use xlink:href="#8" y="2.171"></use><text x="0" y="6.012" class="c">[1]</text><text x="4.008" y="6.012" class="c">&quot;compiler&quot;</text><text x="16.032" y="6.012" class="c">&quot;graphics&quot;</text><text x="28.055999999999997" y="6.012" class="c">&quot;utils&quot;</text><text x="40.08" y="6.012" class="c">&quot;grDevices&quot;</text></svg><svg x="5800"><use xlink:href="#a"></use><use xlink:href="#7" y="0"></use><use xlink:href="#8" y="2.171"></use><text x="0" y="6.012" class="c">[1]</text><text x="4.008" y="6.012" class="c">&quot;compiler&quot;</text><text x="16.032" y="6.012" class="c">&quot;graphics&quot;</text><text x="28.055999999999997" y="6.012" class="c">&quot;utils&quot;</text><text x="40.08" y="6.012" class="c">&quot;grDevices&quot;</text><text x="52.104" y="6.012" class="c">&quot;stats&quot;</text></svg><svg x="5900"><use xlink:href="#a"></use><use xlink:href="#7" y="0"></use><use xlink:href="#8" y="2.171"></use><use xlink:href="#9" y="4.342"></use></svg><svg x="6000"><use xlink:href="#a"></use><use xlink:href="#7" y="0"></use><use xlink:href="#8" y="2.171"></use><use xlink:href="#9" y="4.342"></use></svg><svg x="6100"><use xlink:href="#a"></use><use xlink:href="#7" y="0"></use><use xlink:href="#8" y="2.171"></use><use xlink:href="#9" y="4.342"></use><text x="0" y="8.183" class="c">[7]</text></svg><svg x="6200"><use xlink:href="#a"></use><use xlink:href="#7" y="0"></use><use xlink:href="#8" y="2.171"></use><use xlink:href="#9" y="4.342"></use><text x="0" y="8.183" class="c">[7]</text><text x="4.008" y="8.183" class="c">&quot;methods&quot;</text></svg><svg x="6300"><use xlink:href="#a"></use><use xlink:href="#7" y="0"></use><use xlink:href="#8" y="2.171"></use><use xlink:href="#9" y="4.342"></use><use xlink:href="#10" y="6.513"></use></svg><svg x="6400"><use xlink:href="#a"></use><use xlink:href="#7" y="0"></use><use xlink:href="#8" y="2.171"></use><use xlink:href="#9" y="4.342"></use><use xlink:href="#10" y="6.513"></use></svg><svg x="6500"><use xlink:href="#a"></use><use xlink:href="#7" y="0"></use><use xlink:href="#8" y="2.171"></use><use xlink:href="#9" y="4.342"></use><use xlink:href="#10" y="6.513"></use></svg></svg></g></g></svg></svg>