<svg xmlns="http://www.w3.org/2000/svg" xmlns:xlink="http://www.w3.org/1999/xlink" width="840" height="126.83999999999999"><rect width="840" height="126.83999999999999" rx="0" ry="0" class="a"></rect><svg height="86.83999999999999" viewBox="0 0 80 8.684" width="800" x="20" xmlns="http://www.w3.org/2000/svg" xmlns:xlink="http://www.w3.org/1999/xlink" y="20"><style>.a{fill:rgb(204,204,204)}.b{font-family:'Fira Code',Monaco,Consolas,Menlo,'Bitstream Vera Sans Mono','Powerline Symbols',monospace}.c{fill:rgb(18,19,20);white-space:pre}.d{fill:transparent}.e{fill:rgb(18,19,20)}.g{animation-duration:8.5878983823579s;animation-iteration-count:infinite;animation-name:f;animation-timing-function:steps(1,end)}@keyframes f{0%{transform:translateX(-0px)}0%{transform:translateX(-80px)}0.8%{transform:translateX(-160px)}1.3%{transform:translateX(-240px)}1.9%{transform:translateX(-320px)}2.5%{transform:translateX(-400px)}3.3%{transform:translateX(-480px)}4%{transform:translateX(-560px)}4.8%{transform:translateX(-640px)}5.2%{transform:translateX(-720px)}6%{transform:translateX(-800px)}6.6%{transform:translateX(-880px)}7.2%{transform:translateX(-960px)}7.8%{transform:translateX(-1040px)}8.2%{transform:translateX(-1120px)}8.9%{transform:translateX(-1200px)}9.6%{transform:translateX(-1280px)}10.1%{transform:translateX(-1360px)}10.9%{transform:translateX(-1440px)}11.7%{transform:translateX(-1520px)}12.5%{transform:translateX(-1600px)}13.2%{transform:translateX(-1680px)}14.1%{transform:translateX(-1760px)}14.8%{transform:translateX(-1840px)}15.5%{transform:translateX(-1920px)}16.1%{transform:translateX(-2000px)}16.7%{transform:translateX(-2080px)}17.1%{transform:translateX(-2160px)}17.5%{transform:translateX(-2240px)}18.1%{transform:translateX(-2320px)}18.7%{transform:translateX(-2400px)}19.3%{transform:translateX(-2480px)}19.3%{transform:translateX(-2560px)}19.3%{transform:translateX(-2640px)}20.1%{transform:translateX(-2720px)}20.8%{transform:translateX(-2800px)}21.4%{transform:translateX(-2880px)}22.1%{transform:translateX(-2960px)}22.9%{transform:translateX(-3040px)}23.6%{transform:translateX(-3120px)}24.2%{transform:translateX(-3200px)}24.7%{transform:translateX(-3280px)}25.1%{transform:translateX(-3360px)}25.9%{transform:translateX(-3440px)}26.4%{transform:translateX(-3520px)}26.8%{transform:translateX(-3600px)}27.6%{transform:translateX(-3680px)}27.9%{transform:translateX(-3760px)}28.4%{transform:translateX(-3840px)}29%{transform:translateX(-3920px)}29.5%{transform:translateX(-4000px)}30.1%{transform:translateX(-4080px)}30.1%{transform:translateX(-4160px)}30.1%{transform:translateX(-4240px)}30.1%{transform:translateX(-4320px)}30.1%{transform:translateX(-4400px)}30.1%{transform:translateX(-4480px)}30.1%{transform:translateX(-4560px)}30.1%{transform:translateX(-4640px)}30.1%{transform:translateX(-4720px)}30.1%{transform:translateX(-4800px)}30.1%{transform:translateX(-4880px)}30.1%{transform:translateX(-4960px)}30.1%{transform:translateX(-5040px)}30.1%{transform:translateX(-5120px)}100%{transform:translateX(-5200px)}}</style><g font-family="&#x27;Fira Code&#x27;,Monaco,Consolas,Menlo,&#x27;Bitstream Vera Sans Mono&#x27;,&#x27;Powerline Symbols&#x27;,monospace" font-size="1.67" class="b"><defs><symbol id="1"><text font-size="1.67" x="0" y="1.67" class="c">&gt;</text></symbol><symbol id="2"><text font-size="1.67" x="0" y="1.67" class="c">&gt;</text><text font-size="1.67" x="2.004" y="1.67" class="c">#</text></symbol><symbol id="3"><text font-size="1.67" x="0" y="1.67" class="c">&gt;</text><text font-size="1.67" x="2.004" y="1.67" class="c">#</text><text font-size="1.67" x="4.008" y="1.67" class="c">This</text></symbol><symbol id="4"><text font-size="1.67" x="0" y="1.67" class="c">&gt;</text><text font-size="1.67" x="2.004" y="1.67" class="c">#</text><text font-size="1.67" x="4.008" y="1.67" class="c">This</text><text font-size="1.67" x="9.017999999999999" y="1.67" class="c">is</text></symbol><symbol id="5"><text font-size="1.67" x="0" y="1.67" class="c">&gt;</text><text font-size="1.67" x="2.004" y="1.67" class="c">#</text><text font-size="1.67" x="4.008" y="1.67" class="c">This</text><text font-size="1.67" x="9.017999999999999" y="1.67" class="c">is</text><text font-size="1.67" x="12.024" y="1.67" class="c">an</text></symbol><symbol id="6"><text font-size="1.67" x="0" y="1.67" class="c">&gt;</text><text font-size="1.67" x="2.004" y="1.67" class="c">#</text><text font-size="1.67" x="4.008" y="1.67" class="c">This</text><text font-size="1.67" x="9.017999999999999" y="1.67" class="c">is</text><text font-size="1.67" x="12.024" y="1.67" class="c">an</text><text font-size="1.67" x="15.029999999999998" y="1.67" class="c">asciicast</text></symbol><symbol id="7"><text font-size="1.67" x="0" y="1.67" class="c">&gt;</text><text font-size="1.67" x="2.004" y="1.67" class="c">#</text><text font-size="1.67" x="4.008" y="1.67" class="c">This</text><text font-size="1.67" x="9.017999999999999" y="1.67" class="c">is</text><text font-size="1.67" x="12.024" y="1.67" class="c">an</text><text font-size="1.67" x="15.029999999999998" y="1.67" class="c">asciicast</text><text font-size="1.67" x="25.05" y="1.67" class="c">example</text></symbol><symbol id="8"><text font-size="1.67" x="0" y="1.67" class="c">&gt;</text><text font-size="1.67" x="2.004" y="1.67" class="c">loadedNamespaces()</text></symbol><symbol id="9"><text font-size="1.67" x="0" y="1.67" class="c">[1]</text><text font-size="1.67" x="4.008" y="1.67" class="c">&quot;compiler&quot;</text><text font-size="1.67" x="16.032" y="1.67" class="c">&quot;graphics&quot;</text><text font-size="1.67" x="28.055999999999997" y="1.67" class="c">&quot;utils&quot;</text><text font-size="1.67" x="40.08" y="1.67" class="c">&quot;grDevices&quot;</text><text font-size="1.67" x="52.104" y="1.67" class="c">&quot;stats&quot;</text><text font-size="1.67" x="64.128" y="1.67" class="c">&quot;datasets&quot;</text></symbol><symbol id="10"><text font-size="1.67" x="0" y="1.67" class="c">[7]</text><text font-size="1.67" x="4.008" y="1.67" class="c">&quot;methods&quot;</text><text font-size="1.67" x="16.032" y="1.67" class="c">&quot;base&quot;</text></symbol><symbol id="a"><rect height="4" width="80" x="0" y="0" class="d"></rect></symbol><symbol id="b"><rect height="2.171" width="1.1022" class="e"></rect></symbol></defs><rect height="8.684" width="80" class="a"></rect><g class="g"><svg x="0" y="0" width="5280"><svg x="0"><use xlink:href="#a"></use><use xlink:href="#b" x="-0.0040000000000000036" y="0"></use></svg><svg x="80"><use xlink:href="#a"></use><use xlink:href="#b" x="1.996" y="0"></use><use xlink:href="#1" y="0"></use></svg><svg x="160"><use xlink:href="#a"></use><use xlink:href="#b" x="2.996" y="0"></use><use xlink:href="#2" y="0"></use></svg><svg x="240"><use xlink:href="#a"></use><use xlink:href="#b" x="3.996" y="0"></use><use xlink:href="#2" y="0"></use></svg><svg x="320"><use xlink:href="#a"></use><use xlink:href="#b" x="4.996" y="0"></use><text font-size="1.67" x="0" y="1.67" class="c">&gt;</text><text font-size="1.67" x="2.004" y="1.67" class="c">#</text><text font-size="1.67" x="4.008" y="1.67" class="c">T</text></svg><svg x="400"><use xlink:href="#a"></use><use xlink:href="#b" x="5.996" y="0"></use><text font-size="1.67" x="0" y="1.67" class="c">&gt;</text><text font-size="1.67" x="2.004" y="1.67" class="c">#</text><text font-size="1.67" x="4.008" y="1.67" class="c">Th</text></svg><svg x="480"><use xlink:href="#a"></use><use xlink:href="#b" x="6.996" y="0"></use><text font-size="1.67" x="0" y="1.67" class="c">&gt;</text><text font-size="1.67" x="2.004" y="1.67" class="c">#</text><text font-size="1.67" x="4.008" y="1.67" class="c">Thi</text></svg><svg x="560"><use xlink:href="#a"></use><use xlink:href="#b" x="7.996" y="0"></use><use xlink:href="#3" y="0"></use></svg><svg x="640"><use xlink:href="#a"></use><use xlink:href="#b" x="8.996" y="0"></use><use xlink:href="#3" y="0"></use></svg><svg x="720"><use xlink:href="#a"></use><use xlink:href="#b" x="9.996" y="0"></use><text font-size="1.67" x="0" y="1.67" class="c">&gt;</text><text font-size="1.67" x="2.004" y="1.67" class="c">#</text><text font-size="1.67" x="4.008" y="1.67" class="c">This</text><text font-size="1.67" x="9.017999999999999" y="1.67" class="c">i</text></svg><svg x="800"><use xlink:href="#a"></use><use xlink:href="#b" x="10.996" y="0"></use><use xlink:href="#4" y="0"></use></svg><svg x="880"><use xlink:href="#a"></use><use xlink:href="#b" x="11.996" y="0"></use><use xlink:href="#4" y="0"></use></svg><svg x="960"><use xlink:href="#a"></use><use xlink:href="#b" x="12.996" y="0"></use><text font-size="1.67" x="0" y="1.67" class="c">&gt;</text><text font-size="1.67" x="2.004" y="1.67" class="c">#</text><text font-size="1.67" x="4.008" y="1.67" class="c">This</text><text font-size="1.67" x="9.017999999999999" y="1.67" class="c">is</text><text font-size="1.67" x="12.024" y="1.67" class="c">a</text></svg><svg x="1040"><use xlink:href="#a"></use><use xlink:href="#b" x="13.996" y="0"></use><use xlink:href="#5" y="0"></use></svg><svg x="1120"><use xlink:href="#a"></use><use xlink:href="#b" x="14.996" y="0"></use><use xlink:href="#5" y="0"></use></svg><svg x="1200"><use xlink:href="#a"></use><use xlink:href="#b" x="15.996" y="0"></use><text font-size="1.67" x="0" y="1.67" class="c">&gt;</text><text font-size="1.67" x="2.004" y="1.67" class="c">#</text><text font-size="1.67" x="4.008" y="1.67" class="c">This</text><text font-size="1.67" x="9.017999999999999" y="1.67" class="c">is</text><text font-size="1.67" x="12.024" y="1.67" class="c">an</text><text font-size="1.67" x="15.029999999999998" y="1.67" class="c">a</text></svg><svg x="1280"><use xlink:href="#a"></use><use xlink:href="#b" x="16.996" y="0"></use><text font-size="1.67" x="0" y="1.67" class="c">&gt;</text><text font-size="1.67" x="2.004" y="1.67" class="c">#</text><text font-size="1.67" x="4.008" y="1.67" class="c">This</text><text font-size="1.67" x="9.017999999999999" y="1.67" class="c">is</text><text font-size="1.67" x="12.024" y="1.67" class="c">an</text><text font-size="1.67" x="15.029999999999998" y="1.67" class="c">as</text></svg><svg x="1360"><use xlink:href="#a"></use><use xlink:href="#b" x="17.996" y="0"></use><text font-size="1.67" x="0" y="1.67" class="c">&gt;</text><text font-size="1.67" x="2.004" y="1.67" class="c">#</text><text font-size="1.67" x="4.008" y="1.67" class="c">This</text><text font-size="1.67" x="9.017999999999999" y="1.67" class="c">is</text><text font-size="1.67" x="12.024" y="1.67" class="c">an</text><text font-size="1.67" x="15.029999999999998" y="1.67" class="c">asc</text></svg><svg x="1440"><use xlink:href="#a"></use><use xlink:href="#b" x="18.996" y="0"></use><text font-size="1.67" x="0" y="1.67" class="c">&gt;</text><text font-size="1.67" x="2.004" y="1.67" class="c">#</text><text font-size="1.67" x="4.008" y="1.67" class="c">This</text><text font-size="1.67" x="9.017999999999999" y="1.67" class="c">is</text><text font-size="1.67" x="12.024" y="1.67" class="c">an</text><text font-size="1.67" x="15.029999999999998" y="1.67" class="c">asci</text></svg><svg x="1520"><use xlink:href="#a"></use><use xlink:href="#b" x="19.996" y="0"></use><text font-size="1.67" x="0" y="1.67" class="c">&gt;</text><text font-size="1.67" x="2.004" y="1.67" class="c">#</text><text font-size="1.67" x="4.008" y="1.67" class="c">This</text><text font-size="1.67" x="9.017999999999999" y="1.67" class="c">is</text><text font-size="1.67" x="12.024" y="1.67" class="c">an</text><text font-size="1.67" x="15.029999999999998" y="1.67" class="c">ascii</text></svg><svg x="1600"><use xlink:href="#a"></use><use xlink:href="#b" x="20.996" y="0"></use><text font-size="1.67" x="0" y="1.67" class="c">&gt;</text><text font-size="1.67" x="2.004" y="1.67" class="c">#</text><text font-size="1.67" x="4.008" y="1.67" class="c">This</text><text font-size="1.67" x="9.017999999999999" y="1.67" class="c">is</text><text font-size="1.67" x="12.024" y="1.67" class="c">an</text><text font-size="1.67" x="15.029999999999998" y="1.67" class="c">asciic</text></svg><svg x="1680"><use xlink:href="#a"></use><use xlink:href="#b" x="21.996" y="0"></use><text font-size="1.67" x="0" y="1.67" class="c">&gt;</text><text font-size="1.67" x="2.004" y="1.67" class="c">#</text><text font-size="1.67" x="4.008" y="1.67" class="c">This</text><text font-size="1.67" x="9.017999999999999" y="1.67" class="c">is</text><text font-size="1.67" x="12.024" y="1.67" class="c">an</text><text font-size="1.67" x="15.029999999999998" y="1.67" class="c">asciica</text></svg><svg x="1760"><use xlink:href="#a"></use><use xlink:href="#b" x="22.996" y="0"></use><text font-size="1.67" x="0" y="1.67" class="c">&gt;</text><text font-size="1.67" x="2.004" y="1.67" class="c">#</text><text font-size="1.67" x="4.008" y="1.67" class="c">This</text><text font-size="1.67" x="9.017999999999999" y="1.67" class="c">is</text><text font-size="1.67" x="12.024" y="1.67" class="c">an</text><text font-size="1.67" x="15.029999999999998" y="1.67" class="c">asciicas</text></svg><svg x="1840"><use xlink:href="#a"></use><use xlink:href="#b" x="23.996" y="0"></use><use xlink:href="#6" y="0"></use></svg><svg x="1920"><use xlink:href="#a"></use><use xlink:href="#b" x="24.996" y="0"></use><use xlink:href="#6" y="0"></use></svg><svg x="2000"><use xlink:href="#a"></use><use xlink:href="#b" x="25.996" y="0"></use><text font-size="1.67" x="0" y="1.67" class="c">&gt;</text><text font-size="1.67" x="2.004" y="1.67" class="c">#</text><text font-size="1.67" x="4.008" y="1.67" class="c">This</text><text font-size="1.67" x="9.017999999999999" y="1.67" class="c">is</text><text font-size="1.67" x="12.024" y="1.67" class="c">an</text><text font-size="1.67" x="15.029999999999998" y="1.67" class="c">asciicast</text><text font-size="1.67" x="25.05" y="1.67" class="c">e</text></svg><svg x="2080"><use xlink:href="#a"></use><use xlink:href="#b" x="26.996" y="0"></use><text font-size="1.67" x="0" y="1.67" class="c">&gt;</text><text font-size="1.67" x="2.004" y="1.67" class="c">#</text><text font-size="1.67" x="4.008" y="1.67" class="c">This</text><text font-size="1.67" x="9.017999999999999" y="1.67" class="c">is</text><text font-size="1.67" x="12.024" y="1.67" class="c">an</text><text font-size="1.67" x="15.029999999999998" y="1.67" class="c">asciicast</text><text font-size="1.67" x="25.05" y="1.67" class="c">ex</text></svg><svg x="2160"><use xlink:href="#a"></use><use xlink:href="#b" x="27.996" y="0"></use><text font-size="1.67" x="0" y="1.67" class="c">&gt;</text><text font-size="1.67" x="2.004" y="1.67" class="c">#</text><text font-size="1.67" x="4.008" y="1.67" class="c">This</text><text font-size="1.67" x="9.017999999999999" y="1.67" class="c">is</text><text font-size="1.67" x="12.024" y="1.67" class="c">an</text><text font-size="1.67" x="15.029999999999998" y="1.67" class="c">asciicast</text><text font-size="1.67" x="25.05" y="1.67" class="c">exa</text></svg><svg x="2240"><use xlink:href="#a"></use><use xlink:href="#b" x="28.996" y="0"></use><text font-size="1.67" x="0" y="1.67" class="c">&gt;</text><text font-size="1.67" x="2.004" y="1.67" class="c">#</text><text font-size="1.67" x="4.008" y="1.67" class="c">This</text><text font-size="1.67" x="9.017999999999999" y="1.67" class="c">is</text><text font-size="1.67" x="12.024" y="1.67" class="c">an</text><text font-size="1.67" x="15.029999999999998" y="1.67" class="c">asciicast</text><text font-size="1.67" x="25.05" y="1.67" class="c">exam</text></svg><svg x="2320"><use xlink:href="#a"></use><use xlink:href="#b" x="29.996" y="0"></use><text font-size="1.67" x="0" y="1.67" class="c">&gt;</text><text font-size="1.67" x="2.004" y="1.67" class="c">#</text><text font-size="1.67" x="4.008" y="1.67" class="c">This</text><text font-size="1.67" x="9.017999999999999" y="1.67" class="c">is</text><text font-size="1.67" x="12.024" y="1.67" class="c">an</text><text font-size="1.67" x="15.029999999999998" y="1.67" class="c">asciicast</text><text font-size="1.67" x="25.05" y="1.67" class="c">examp</text></svg><svg x="2400"><use xlink:href="#a"></use><use xlink:href="#b" x="30.996" y="0"></use><text font-size="1.67" x="0" y="1.67" class="c">&gt;</text><text font-size="1.67" x="2.004" y="1.67" class="c">#</text><text font-size="1.67" x="4.008" y="1.67" class="c">This</text><text font-size="1.67" x="9.017999999999999" y="1.67" class="c">is</text><text font-size="1.67" x="12.024" y="1.67" class="c">an</text><text font-size="1.67" x="15.029999999999998" y="1.67" class="c">asciicast</text><text font-size="1.67" x="25.05" y="1.67" class="c">exampl</text></svg><svg x="2480"><use xlink:href="#a"></use><use xlink:href="#b" x="31.996" y="0"></use><use xlink:href="#7" y="0"></use></svg><svg x="2560"><use xlink:href="#a"></use><use xlink:href="#b" x="-0.0040000000000000036" y="2.146"></use><use xlink:href="#7" y="0"></use></svg><svg x="2640"><use xlink:href="#a"></use><use xlink:href="#b" x="1.996" y="2.146"></use><use xlink:href="#7" y="0"></use><use xlink:href="#1" y="2.171"></use></svg><svg x="2720"><use xlink:href="#a"></use><use xlink:href="#b" x="2.996" y="2.146"></use><use xlink:href="#7" y="0"></use><text font-size="1.67" x="0" y="3.8409999999999997" class="c">&gt;</text><text font-size="1.67" x="2.004" y="3.8409999999999997" class="c">l</text></svg><svg x="2800"><use xlink:href="#a"></use><use xlink:href="#b" x="3.996" y="2.146"></use><use xlink:href="#7" y="0"></use><text font-size="1.67" x="0" y="3.8409999999999997" class="c">&gt;</text><text font-size="1.67" x="2.004" y="3.8409999999999997" class="c">lo</text></svg><svg x="2880"><use xlink:href="#a"></use><use xlink:href="#b" x="4.996" y="2.146"></use><use xlink:href="#7" y="0"></use><text font-size="1.67" x="0" y="3.8409999999999997" class="c">&gt;</text><text font-size="1.67" x="2.004" y="3.8409999999999997" class="c">loa</text></svg><svg x="2960"><use xlink:href="#a"></use><use xlink:href="#b" x="5.996" y="2.146"></use><use xlink:href="#7" y="0"></use><text font-size="1.67" x="0" y="3.8409999999999997" class="c">&gt;</text><text font-size="1.67" x="2.004" y="3.8409999999999997" class="c">load</text></svg><svg x="3040"><use xlink:href="#a"></use><use xlink:href="#b" x="6.996" y="2.146"></use><use xlink:href="#7" y="0"></use><text font-size="1.67" x="0" y="3.8409999999999997" class="c">&gt;</text><text font-size="1.67" x="2.004" y="3.8409999999999997" class="c">loade</text></svg><svg x="3120"><use xlink:href="#a"></use><use xlink:href="#b" x="7.996" y="2.146"></use><use xlink:href="#7" y="0"></use><text font-size="1.67" x="0" y="3.8409999999999997" class="c">&gt;</text><text font-size="1.67" x="2.004" y="3.8409999999999997" class="c">loaded</text></svg><svg x="3200"><use xlink:href="#a"></use><use xlink:href="#b" x="8.996" y="2.146"></use><use xlink:href="#7" y="0"></use><text font-size="1.67" x="0" y="3.8409999999999997" class="c">&gt;</text><text font-size="1.67" x="2.004" y="3.8409999999999997" class="c">loadedN</text></svg><svg x="3280"><use xlink:href="#a"></use><use xlink:href="#b" x="9.996" y="2.146"></use><use xlink:href="#7" y="0"></use><text font-size="1.67" x="0" y="3.8409999999999997" class="c">&gt;</text><text font-size="1.67" x="2.004" y="3.8409999999999997" class="c">loadedNa</text></svg><svg x="3360"><use xlink:href="#a"></use><use xlink:href="#b" x="10.996" y="2.146"></use><use xlink:href="#7" y="0"></use><text font-size="1.67" x="0" y="3.8409999999999997" class="c">&gt;</text><text font-size="1.67" x="2.004" y="3.8409999999999997" class="c">loadedNam</text></svg><svg x="3440"><use xlink:href="#a"></use><use xlink:href="#b" x="11.996" y="2.146"></use><use xlink:href="#7" y="0"></use><text font-size="1.67" x="0" y="3.8409999999999997" class="c">&gt;</text><text font-size="1.67" x="2.004" y="3.8409999999999997" class="c">loadedName</text></svg><svg x="3520"><use xlink:href="#a"></use><use xlink:href="#b" x="12.996" y="2.146"></use><use xlink:href="#7" y="0"></use><text font-size="1.67" x="0" y="3.8409999999999997" class="c">&gt;</text><text font-size="1.67" x="2.004" y="3.8409999999999997" class="c">loadedNames</text></svg><svg x="3600"><use xlink:href="#a"></use><use xlink:href="#b" x="13.996" y="2.146"></use><use xlink:href="#7" y="0"></use><text font-size="1.67" x="0" y="3.8409999999999997" class="c">&gt;</text><text font-size="1.67" x="2.004" y="3.8409999999999997" class="c">loadedNamesp</text></svg><svg x="3680"><use xlink:href="#a"></use><use xlink:href="#b" x="14.996" y="2.146"></use><use xlink:href="#7" y="0"></use><text font-size="1.67" x="0" y="3.8409999999999997" class="c">&gt;</text><text font-size="1.67" x="2.004" y="3.8409999999999997" class="c">loadedNamespa</text></svg><svg x="3760"><use xlink:href="#a"></use><use xlink:href="#b" x="15.996" y="2.146"></use><use xlink:href="#7" y="0"></use><text font-size="1.67" x="0" y="3.8409999999999997" class="c">&gt;</text><text font-size="1.67" x="2.004" y="3.8409999999999997" class="c">loadedNamespac</text></svg><svg x="3840"><use xlink:href="#a"></use><use xlink:href="#b" x="16.996" y="2.146"></use><use xlink:href="#7" y="0"></use><text font-size="1.67" x="0" y="3.8409999999999997" class="c">&gt;</text><text font-size="1.67" x="2.004" y="3.8409999999999997" class="c">loadedNamespace</text></svg><svg x="3920"><use xlink:href="#a"></use><use xlink:href="#b" x="17.996" y="2.146"></use><use xlink:href="#7" y="0"></use><text font-size="1.67" x="0" y="3.8409999999999997" class="c">&gt;</text><text font-size="1.67" x="2.004" y="3.8409999999999997" class="c">loadedNamespaces</text></svg><svg x="4000"><use xlink:href="#a"></use><use xlink:href="#b" x="18.996" y="2.146"></use><use xlink:href="#7" y="0"></use><text font-size="1.67" x="0" y="3.8409999999999997" class="c">&gt;</text><text font-size="1.67" x="2.004" y="3.8409999999999997" class="c">loadedNamespaces(</text></svg><svg x="4080"><use xlink:href="#a"></use><use xlink:href="#b" x="19.996" y="2.146"></use><use xlink:href="#7" y="0"></use><use xlink:href="#8" y="2.171"></use></svg><svg x="4160"><use xlink:href="#a"></use><use xlink:href="#b" x="-0.0040000000000000036" y="4.317"></use><use xlink:href="#7" y="0"></use><use xlink:href="#8" y="2.171"></use></svg><svg x="4240"><use xlink:href="#a"></use><use xlink:href="#b" x="2.996" y="4.317"></use><use xlink:href="#7" y="0"></use><use xlink:href="#8" y="2.171"></use><text font-size="1.67" x="0" y="6.012" class="c">[1]</text></svg><svg x="4320"><use xlink:href="#a"></use><use xlink:href="#b" x="14.996" y="4.317"></use><use xlink:href="#7" y="0"></use><use xlink:href="#8" y="2.171"></use><text font-size="1.67" x="0" y="6.012" class="c">[1]</text><text font-size="1.67" x="4.008" y="6.012" class="c">&quot;compiler&quot;</text></svg><svg x="4400"><use xlink:href="#a"></use><use xlink:href="#b" x="26.996" y="4.317"></use><use xlink:href="#7" y="0"></use><use xlink:href="#8" y="2.171"></use><text font-size="1.67" x="0" y="6.012" class="c">[1]</text><text font-size="1.67" x="4.008" y="6.012" class="c">&quot;compiler&quot;</text><text font-size="1.67" x="16.032" y="6.012" class="c">&quot;graphics&quot;</text></svg><svg x="4480"><use xlink:href="#a"></use><use xlink:href="#b" x="38.996" y="4.317"></use><use xlink:href="#7" y="0"></use><use xlink:href="#8" y="2.171"></use><text font-size="1.67" x="0" y="6.012" class="c">[1]</text><text font-size="1.67" x="4.008" y="6.012" class="c">&quot;compiler&quot;</text><text font-size="1.67" x="16.032" y="6.012" class="c">&quot;graphics&quot;</text><text font-size="1.67" x="28.055999999999997" y="6.012" class="c">&quot;utils&quot;</text></svg><svg x="4560"><use xlink:href="#a"></use><use xlink:href="#b" x="50.996" y="4.317"></use><use xlink:href="#7" y="0"></use><use xlink:href="#8" y="2.171"></use><text font-size="1.67" x="0" y="6.012" class="c">[1]</text><text font-size="1.67" x="4.008" y="6.012" class="c">&quot;compiler&quot;</text><text font-size="1.67" x="16.032" y="6.012" class="c">&quot;graphics&quot;</text><text font-size="1.67" x="28.055999999999997" y="6.012" class="c">&quot;utils&quot;</text><text font-size="1.67" x="40.08" y="6.012" class="c">&quot;grDevices&quot;</text></svg><svg x="4640"><use xlink:href="#a"></use><use xlink:href="#b" x="62.996" y="4.317"></use><use xlink:href="#7" y="0"></use><use xlink:href="#8" y="2.171"></use><text font-size="1.67" x="0" y="6.012" class="c">[1]</text><text font-size="1.67" x="4.008" y="6.012" class="c">&quot;compiler&quot;</text><text font-size="1.67" x="16.032" y="6.012" class="c">&quot;graphics&quot;</text><text font-size="1.67" x="28.055999999999997" y="6.012" class="c">&quot;utils&quot;</text><text font-size="1.67" x="40.08" y="6.012" class="c">&quot;grDevices&quot;</text><text font-size="1.67" x="52.104" y="6.012" class="c">&quot;stats&quot;</text></svg><svg x="4720"><use xlink:href="#a"></use><use xlink:href="#b" x="74.996" y="4.317"></use><use xlink:href="#7" y="0"></use><use xlink:href="#8" y="2.171"></use><use xlink:href="#9" y="4.342"></use></svg><svg x="4800"><use xlink:href="#a"></use><use xlink:href="#b" x="-0.0040000000000000036" y="6.4879999999999995"></use><use xlink:href="#7" y="0"></use><use xlink:href="#8" y="2.171"></use><use xlink:href="#9" y="4.342"></use></svg><svg x="4880"><use xlink:href="#a"></use><use xlink:href="#b" x="2.996" y="6.4879999999999995"></use><use xlink:href="#7" y="0"></use><use xlink:href="#8" y="2.171"></use><use xlink:href="#9" y="4.342"></use><text font-size="1.67" x="0" y="8.183" class="c">[7]</text></svg><svg x="4960"><use xlink:href="#a"></use><use xlink:href="#b" x="14.996" y="6.4879999999999995"></use><use xlink:href="#7" y="0"></use><use xlink:href="#8" y="2.171"></use><use xlink:href="#9" y="4.342"></use><text font-size="1.67" x="0" y="8.183" class="c">[7]</text><text font-size="1.67" x="4.008" y="8.183" class="c">&quot;methods&quot;</text></svg><svg x="5040"><use xlink:href="#a"></use><use xlink:href="#b" x="26.996" y="6.4879999999999995"></use><use xlink:href="#7" y="0"></use><use xlink:href="#8" y="2.171"></use><use xlink:href="#9" y="4.342"></use><use xlink:href="#10" y="6.513"></use></svg><svg x="5120"><use xlink:href="#a"></use><use xlink:href="#b" x="26.996" y="6.4879999999999995"></use><use xlink:href="#7" y="0"></use><use xlink:href="#8" y="2.171"></use><use xlink:href="#9" y="4.342"></use><use xlink:href="#10" y="6.513"></use></svg><svg x="5200"><use xlink:href="#a"></use><use xlink:href="#b" x="26.996" y="6.4879999999999995"></use><use xlink:href="#7" y="0"></use><use xlink:href="#8" y="2.171"></use><use xlink:href="#9" y="4.342"></use><use xlink:href="#10" y="6.513"></use></svg></svg></g></g></svg></svg>