<svg xmlns="http://www.w3.org/2000/svg" xmlns:xlink="http://www.w3.org/1999/xlink" width="840" height="277.1"><rect width="840" height="277.1" rx="5" ry="5" class="a"></rect><svg y="0%" x="0%"><circle cx="20" cy="20" r="6" class="b"></circle><circle cx="40" cy="20" r="6" class="c"></circle><circle cx="60" cy="20" r="6" class="d"></circle></svg><svg height="217.10000000000002" viewBox="0 0 80 21.71" width="800" x="15" xmlns="http://www.w3.org/2000/svg" xmlns:xlink="http://www.w3.org/1999/xlink" y="50"><style>.a{fill:rgb(40,45,53)}.b{fill:#ff5f58}.c{fill:#ffbd2e}.d{fill:#18c132}.e{font-family:Monaco,Consolas,Menlo,'Bitstream Vera Sans Mono','Powerline Symbols',monospace}.f{fill:rgb(185,192,203)}.g{fill:transparent}.h{fill:rgb(111,118,131)}.j{animation-duration:9.7888069152832s;animation-iteration-count:infinite;animation-name:i;animation-timing-function:steps(1,end)}@keyframes i{0%{transform:translateX(-0px)}0.4%{transform:translateX(-80px)}21.2%{transform:translateX(-160px)}21.5%{transform:translateX(-240px)}21.9%{transform:translateX(-320px)}22.6%{transform:translateX(-400px)}23.1%{transform:translateX(-480px)}23.6%{transform:translateX(-560px)}23.9%{transform:translateX(-640px)}24.2%{transform:translateX(-720px)}24.9%{transform:translateX(-800px)}25.6%{transform:translateX(-880px)}25.9%{transform:translateX(-960px)}26.4%{transform:translateX(-1040px)}27%{transform:translateX(-1120px)}27.2%{transform:translateX(-1200px)}27.9%{transform:translateX(-1280px)}28.4%{transform:translateX(-1360px)}29.1%{transform:translateX(-1440px)}29.6%{transform:translateX(-1520px)}30.1%{transform:translateX(-1600px)}30.9%{transform:translateX(-1680px)}31.6%{transform:translateX(-1760px)}32.3%{transform:translateX(-1840px)}33%{transform:translateX(-1920px)}33.6%{transform:translateX(-2000px)}34.4%{transform:translateX(-2080px)}34.7%{transform:translateX(-2160px)}35.4%{transform:translateX(-2240px)}36.2%{transform:translateX(-2320px)}36.9%{transform:translateX(-2400px)}37.4%{transform:translateX(-2480px)}38%{transform:translateX(-2560px)}38%{transform:translateX(-2640px)}38.3%{transform:translateX(-2720px)}39%{transform:translateX(-2800px)}39.5%{transform:translateX(-2880px)}40%{transform:translateX(-2960px)}40.3%{transform:translateX(-3040px)}40.6%{transform:translateX(-3120px)}41.2%{transform:translateX(-3200px)}41.9%{transform:translateX(-3280px)}42.7%{transform:translateX(-3360px)}43.4%{transform:translateX(-3440px)}43.9%{transform:translateX(-3520px)}44.3%{transform:translateX(-3600px)}44.9%{transform:translateX(-3680px)}45.6%{transform:translateX(-3760px)}46.3%{transform:translateX(-3840px)}47%{transform:translateX(-3920px)}47.6%{transform:translateX(-4000px)}48.1%{transform:translateX(-4080px)}48.5%{transform:translateX(-4160px)}48.6%{transform:translateX(-4240px)}48.7%{transform:translateX(-4320px)}100%{transform:translateX(-4400px)}}</style><g font-size="1.67" class="e"><defs><symbol id="1"><text x="0" y="1.67" class="f">&gt;</text></symbol><symbol id="2"><text x="0" y="1.67" class="f">&gt;</text><text x="2.004" y="1.67" class="f">#</text></symbol><symbol id="3"><text x="0" y="1.67" class="f">&gt;</text><text x="2.004" y="1.67" class="f">#</text><text x="4.008" y="1.67" class="f">This</text></symbol><symbol id="4"><text x="0" y="1.67" class="f">&gt;</text><text x="2.004" y="1.67" class="f">#</text><text x="4.008" y="1.67" class="f">This</text><text x="9.017999999999999" y="1.67" class="f">is</text></symbol><symbol id="5"><text x="0" y="1.67" class="f">&gt;</text><text x="2.004" y="1.67" class="f">#</text><text x="4.008" y="1.67" class="f">This</text><text x="9.017999999999999" y="1.67" class="f">is</text><text x="12.024" y="1.67" class="f">an</text></symbol><symbol id="6"><text x="0" y="1.67" class="f">&gt;</text><text x="2.004" y="1.67" class="f">#</text><text x="4.008" y="1.67" class="f">This</text><text x="9.017999999999999" y="1.67" class="f">is</text><text x="12.024" y="1.67" class="f">an</text><text x="15.029999999999998" y="1.67" class="f">asciicast</text></symbol><symbol id="7"><text x="0" y="1.67" class="f">&gt;</text><text x="2.004" y="1.67" class="f">#</text><text x="4.008" y="1.67" class="f">This</text><text x="9.017999999999999" y="1.67" class="f">is</text><text x="12.024" y="1.67" class="f">an</text><text x="15.029999999999998" y="1.67" class="f">asciicast</text><text x="25.05" y="1.67" class="f">example</text></symbol><symbol id="8"><text x="0" y="1.67" class="f">&gt;</text><text x="2.004" y="1.67" class="f">loadedNamespaces()</text></symbol><symbol id="9"><text x="1.002" y="1.67" class="f">[1]</text><text x="5.01" y="1.67" class="f">&quot;compiler&quot;</text><text x="18.035999999999998" y="1.67" class="f">&quot;prettycode&quot;</text><text x="31.061999999999998" y="1.67" class="f">&quot;R6&quot;</text><text x="44.087999999999994" y="1.67" class="f">&quot;assertthat&quot;</text><text x="57.114" y="1.67" class="f">&quot;cli&quot;</text></symbol><symbol id="10"><text x="1.002" y="1.67" class="f">[6]</text><text x="5.01" y="1.67" class="f">&quot;clisymbols&quot;</text><text x="18.035999999999998" y="1.67" class="f">&quot;graphics&quot;</text><text x="31.061999999999998" y="1.67" class="f">&quot;whisker&quot;</text><text x="44.087999999999994" y="1.67" class="f">&quot;withr&quot;</text><text x="57.114" y="1.67" class="f">&quot;tracer&quot;</text></symbol><symbol id="11"><text x="0" y="1.67" class="f">[11]</text><text x="5.01" y="1.67" class="f">&quot;gitty&quot;</text><text x="18.035999999999998" y="1.67" class="f">&quot;utils&quot;</text><text x="31.061999999999998" y="1.67" class="f">&quot;grDevices&quot;</text><text x="44.087999999999994" y="1.67" class="f">&quot;stats&quot;</text><text x="57.114" y="1.67" class="f">&quot;crayon&quot;</text></symbol><symbol id="12"><text x="0" y="1.67" class="f">[16]</text><text x="5.01" y="1.67" class="f">&quot;datasets&quot;</text><text x="18.035999999999998" y="1.67" class="f">&quot;methods&quot;</text><text x="31.061999999999998" y="1.67" class="f">&quot;base&quot;</text><text x="44.087999999999994" y="1.67" class="f">&quot;rdoc&quot;</text></symbol><symbol id="a"><rect height="10" width="80" x="0" y="0" class="g"></rect></symbol><symbol id="b"><rect height="2.171" width="1.1022" class="h"></rect></symbol></defs><rect height="21.71" width="80" class="a"></rect><g class="j"><svg x="0" y="0" width="4480"><svg x="0"><use xlink:href="#a"></use><use xlink:href="#b" x="-0.0040000000000000036" y="0"></use></svg><svg x="80"><use xlink:href="#a"></use><use xlink:href="#b" x="1.996" y="0"></use><use xlink:href="#1" y="0"></use></svg><svg x="160"><use xlink:href="#a"></use><use xlink:href="#b" x="2.996" y="0"></use><use xlink:href="#2" y="0"></use></svg><svg x="240"><use xlink:href="#a"></use><use xlink:href="#b" x="3.996" y="0"></use><use xlink:href="#2" y="0"></use></svg><svg x="320"><use xlink:href="#a"></use><use xlink:href="#b" x="4.996" y="0"></use><text x="0" y="1.67" class="f">&gt;</text><text x="2.004" y="1.67" class="f">#</text><text x="4.008" y="1.67" class="f">T</text></svg><svg x="400"><use xlink:href="#a"></use><use xlink:href="#b" x="5.996" y="0"></use><text x="0" y="1.67" class="f">&gt;</text><text x="2.004" y="1.67" class="f">#</text><text x="4.008" y="1.67" class="f">Th</text></svg><svg x="480"><use xlink:href="#a"></use><use xlink:href="#b" x="6.996" y="0"></use><text x="0" y="1.67" class="f">&gt;</text><text x="2.004" y="1.67" class="f">#</text><text x="4.008" y="1.67" class="f">Thi</text></svg><svg x="560"><use xlink:href="#a"></use><use xlink:href="#b" x="7.996" y="0"></use><use xlink:href="#3" y="0"></use></svg><svg x="640"><use xlink:href="#a"></use><use xlink:href="#b" x="8.996" y="0"></use><use xlink:href="#3" y="0"></use></svg><svg x="720"><use xlink:href="#a"></use><use xlink:href="#b" x="9.996" y="0"></use><text x="0" y="1.67" class="f">&gt;</text><text x="2.004" y="1.67" class="f">#</text><text x="4.008" y="1.67" class="f">This</text><text x="9.017999999999999" y="1.67" class="f">i</text></svg><svg x="800"><use xlink:href="#a"></use><use xlink:href="#b" x="10.996" y="0"></use><use xlink:href="#4" y="0"></use></svg><svg x="880"><use xlink:href="#a"></use><use xlink:href="#b" x="11.996" y="0"></use><use xlink:href="#4" y="0"></use></svg><svg x="960"><use xlink:href="#a"></use><use xlink:href="#b" x="12.996" y="0"></use><text x="0" y="1.67" class="f">&gt;</text><text x="2.004" y="1.67" class="f">#</text><text x="4.008" y="1.67" class="f">This</text><text x="9.017999999999999" y="1.67" class="f">is</text><text x="12.024" y="1.67" class="f">a</text></svg><svg x="1040"><use xlink:href="#a"></use><use xlink:href="#b" x="13.996" y="0"></use><use xlink:href="#5" y="0"></use></svg><svg x="1120"><use xlink:href="#a"></use><use xlink:href="#b" x="14.996" y="0"></use><use xlink:href="#5" y="0"></use></svg><svg x="1200"><use xlink:href="#a"></use><use xlink:href="#b" x="15.996" y="0"></use><text x="0" y="1.67" class="f">&gt;</text><text x="2.004" y="1.67" class="f">#</text><text x="4.008" y="1.67" class="f">This</text><text x="9.017999999999999" y="1.67" class="f">is</text><text x="12.024" y="1.67" class="f">an</text><text x="15.029999999999998" y="1.67" class="f">a</text></svg><svg x="1280"><use xlink:href="#a"></use><use xlink:href="#b" x="16.996" y="0"></use><text x="0" y="1.67" class="f">&gt;</text><text x="2.004" y="1.67" class="f">#</text><text x="4.008" y="1.67" class="f">This</text><text x="9.017999999999999" y="1.67" class="f">is</text><text x="12.024" y="1.67" class="f">an</text><text x="15.029999999999998" y="1.67" class="f">as</text></svg><svg x="1360"><use xlink:href="#a"></use><use xlink:href="#b" x="17.996" y="0"></use><text x="0" y="1.67" class="f">&gt;</text><text x="2.004" y="1.67" class="f">#</text><text x="4.008" y="1.67" class="f">This</text><text x="9.017999999999999" y="1.67" class="f">is</text><text x="12.024" y="1.67" class="f">an</text><text x="15.029999999999998" y="1.67" class="f">asc</text></svg><svg x="1440"><use xlink:href="#a"></use><use xlink:href="#b" x="18.996" y="0"></use><text x="0" y="1.67" class="f">&gt;</text><text x="2.004" y="1.67" class="f">#</text><text x="4.008" y="1.67" class="f">This</text><text x="9.017999999999999" y="1.67" class="f">is</text><text x="12.024" y="1.67" class="f">an</text><text x="15.029999999999998" y="1.67" class="f">asci</text></svg><svg x="1520"><use xlink:href="#a"></use><use xlink:href="#b" x="19.996" y="0"></use><text x="0" y="1.67" class="f">&gt;</text><text x="2.004" y="1.67" class="f">#</text><text x="4.008" y="1.67" class="f">This</text><text x="9.017999999999999" y="1.67" class="f">is</text><text x="12.024" y="1.67" class="f">an</text><text x="15.029999999999998" y="1.67" class="f">ascii</text></svg><svg x="1600"><use xlink:href="#a"></use><use xlink:href="#b" x="20.996" y="0"></use><text x="0" y="1.67" class="f">&gt;</text><text x="2.004" y="1.67" class="f">#</text><text x="4.008" y="1.67" class="f">This</text><text x="9.017999999999999" y="1.67" class="f">is</text><text x="12.024" y="1.67" class="f">an</text><text x="15.029999999999998" y="1.67" class="f">asciic</text></svg><svg x="1680"><use xlink:href="#a"></use><use xlink:href="#b" x="21.996" y="0"></use><text x="0" y="1.67" class="f">&gt;</text><text x="2.004" y="1.67" class="f">#</text><text x="4.008" y="1.67" class="f">This</text><text x="9.017999999999999" y="1.67" class="f">is</text><text x="12.024" y="1.67" class="f">an</text><text x="15.029999999999998" y="1.67" class="f">asciica</text></svg><svg x="1760"><use xlink:href="#a"></use><use xlink:href="#b" x="22.996" y="0"></use><text x="0" y="1.67" class="f">&gt;</text><text x="2.004" y="1.67" class="f">#</text><text x="4.008" y="1.67" class="f">This</text><text x="9.017999999999999" y="1.67" class="f">is</text><text x="12.024" y="1.67" class="f">an</text><text x="15.029999999999998" y="1.67" class="f">asciicas</text></svg><svg x="1840"><use xlink:href="#a"></use><use xlink:href="#b" x="23.996" y="0"></use><use xlink:href="#6" y="0"></use></svg><svg x="1920"><use xlink:href="#a"></use><use xlink:href="#b" x="24.996" y="0"></use><use xlink:href="#6" y="0"></use></svg><svg x="2000"><use xlink:href="#a"></use><use xlink:href="#b" x="25.996" y="0"></use><text x="0" y="1.67" class="f">&gt;</text><text x="2.004" y="1.67" class="f">#</text><text x="4.008" y="1.67" class="f">This</text><text x="9.017999999999999" y="1.67" class="f">is</text><text x="12.024" y="1.67" class="f">an</text><text x="15.029999999999998" y="1.67" class="f">asciicast</text><text x="25.05" y="1.67" class="f">e</text></svg><svg x="2080"><use xlink:href="#a"></use><use xlink:href="#b" x="26.996" y="0"></use><text x="0" y="1.67" class="f">&gt;</text><text x="2.004" y="1.67" class="f">#</text><text x="4.008" y="1.67" class="f">This</text><text x="9.017999999999999" y="1.67" class="f">is</text><text x="12.024" y="1.67" class="f">an</text><text x="15.029999999999998" y="1.67" class="f">asciicast</text><text x="25.05" y="1.67" class="f">ex</text></svg><svg x="2160"><use xlink:href="#a"></use><use xlink:href="#b" x="27.996" y="0"></use><text x="0" y="1.67" class="f">&gt;</text><text x="2.004" y="1.67" class="f">#</text><text x="4.008" y="1.67" class="f">This</text><text x="9.017999999999999" y="1.67" class="f">is</text><text x="12.024" y="1.67" class="f">an</text><text x="15.029999999999998" y="1.67" class="f">asciicast</text><text x="25.05" y="1.67" class="f">exa</text></svg><svg x="2240"><use xlink:href="#a"></use><use xlink:href="#b" x="28.996" y="0"></use><text x="0" y="1.67" class="f">&gt;</text><text x="2.004" y="1.67" class="f">#</text><text x="4.008" y="1.67" class="f">This</text><text x="9.017999999999999" y="1.67" class="f">is</text><text x="12.024" y="1.67" class="f">an</text><text x="15.029999999999998" y="1.67" class="f">asciicast</text><text x="25.05" y="1.67" class="f">exam</text></svg><svg x="2320"><use xlink:href="#a"></use><use xlink:href="#b" x="29.996" y="0"></use><text x="0" y="1.67" class="f">&gt;</text><text x="2.004" y="1.67" class="f">#</text><text x="4.008" y="1.67" class="f">This</text><text x="9.017999999999999" y="1.67" class="f">is</text><text x="12.024" y="1.67" class="f">an</text><text x="15.029999999999998" y="1.67" class="f">asciicast</text><text x="25.05" y="1.67" class="f">examp</text></svg><svg x="2400"><use xlink:href="#a"></use><use xlink:href="#b" x="30.996" y="0"></use><text x="0" y="1.67" class="f">&gt;</text><text x="2.004" y="1.67" class="f">#</text><text x="4.008" y="1.67" class="f">This</text><text x="9.017999999999999" y="1.67" class="f">is</text><text x="12.024" y="1.67" class="f">an</text><text x="15.029999999999998" y="1.67" class="f">asciicast</text><text x="25.05" y="1.67" class="f">exampl</text></svg><svg x="2480"><use xlink:href="#a"></use><use xlink:href="#b" x="31.996" y="0"></use><use xlink:href="#7" y="0"></use></svg><svg x="2560"><use xlink:href="#a"></use><use xlink:href="#b" x="-0.0040000000000000036" y="2.146"></use><use xlink:href="#7" y="0"></use></svg><svg x="2640"><use xlink:href="#a"></use><use xlink:href="#b" x="1.996" y="2.146"></use><use xlink:href="#7" y="0"></use><use xlink:href="#1" y="2.171"></use></svg><svg x="2720"><use xlink:href="#a"></use><use xlink:href="#b" x="2.996" y="2.146"></use><use xlink:href="#7" y="0"></use><text x="0" y="3.8409999999999997" class="f">&gt;</text><text x="2.004" y="3.8409999999999997" class="f">l</text></svg><svg x="2800"><use xlink:href="#a"></use><use xlink:href="#b" x="3.996" y="2.146"></use><use xlink:href="#7" y="0"></use><text x="0" y="3.8409999999999997" class="f">&gt;</text><text x="2.004" y="3.8409999999999997" class="f">lo</text></svg><svg x="2880"><use xlink:href="#a"></use><use xlink:href="#b" x="4.996" y="2.146"></use><use xlink:href="#7" y="0"></use><text x="0" y="3.8409999999999997" class="f">&gt;</text><text x="2.004" y="3.8409999999999997" class="f">loa</text></svg><svg x="2960"><use xlink:href="#a"></use><use xlink:href="#b" x="5.996" y="2.146"></use><use xlink:href="#7" y="0"></use><text x="0" y="3.8409999999999997" class="f">&gt;</text><text x="2.004" y="3.8409999999999997" class="f">load</text></svg><svg x="3040"><use xlink:href="#a"></use><use xlink:href="#b" x="6.996" y="2.146"></use><use xlink:href="#7" y="0"></use><text x="0" y="3.8409999999999997" class="f">&gt;</text><text x="2.004" y="3.8409999999999997" class="f">loade</text></svg><svg x="3120"><use xlink:href="#a"></use><use xlink:href="#b" x="7.996" y="2.146"></use><use xlink:href="#7" y="0"></use><text x="0" y="3.8409999999999997" class="f">&gt;</text><text x="2.004" y="3.8409999999999997" class="f">loaded</text></svg><svg x="3200"><use xlink:href="#a"></use><use xlink:href="#b" x="8.996" y="2.146"></use><use xlink:href="#7" y="0"></use><text x="0" y="3.8409999999999997" class="f">&gt;</text><text x="2.004" y="3.8409999999999997" class="f">loadedN</text></svg><svg x="3280"><use xlink:href="#a"></use><use xlink:href="#b" x="9.996" y="2.146"></use><use xlink:href="#7" y="0"></use><text x="0" y="3.8409999999999997" class="f">&gt;</text><text x="2.004" y="3.8409999999999997" class="f">loadedNa</text></svg><svg x="3360"><use xlink:href="#a"></use><use xlink:href="#b" x="10.996" y="2.146"></use><use xlink:href="#7" y="0"></use><text x="0" y="3.8409999999999997" class="f">&gt;</text><text x="2.004" y="3.8409999999999997" class="f">loadedNam</text></svg><svg x="3440"><use xlink:href="#a"></use><use xlink:href="#b" x="11.996" y="2.146"></use><use xlink:href="#7" y="0"></use><text x="0" y="3.8409999999999997" class="f">&gt;</text><text x="2.004" y="3.8409999999999997" class="f">loadedName</text></svg><svg x="3520"><use xlink:href="#a"></use><use xlink:href="#b" x="12.996" y="2.146"></use><use xlink:href="#7" y="0"></use><text x="0" y="3.8409999999999997" class="f">&gt;</text><text x="2.004" y="3.8409999999999997" class="f">loadedNames</text></svg><svg x="3600"><use xlink:href="#a"></use><use xlink:href="#b" x="13.996" y="2.146"></use><use xlink:href="#7" y="0"></use><text x="0" y="3.8409999999999997" class="f">&gt;</text><text x="2.004" y="3.8409999999999997" class="f">loadedNamesp</text></svg><svg x="3680"><use xlink:href="#a"></use><use xlink:href="#b" x="14.996" y="2.146"></use><use xlink:href="#7" y="0"></use><text x="0" y="3.8409999999999997" class="f">&gt;</text><text x="2.004" y="3.8409999999999997" class="f">loadedNamespa</text></svg><svg x="3760"><use xlink:href="#a"></use><use xlink:href="#b" x="15.996" y="2.146"></use><use xlink:href="#7" y="0"></use><text x="0" y="3.8409999999999997" class="f">&gt;</text><text x="2.004" y="3.8409999999999997" class="f">loadedNamespac</text></svg><svg x="3840"><use xlink:href="#a"></use><use xlink:href="#b" x="16.996" y="2.146"></use><use xlink:href="#7" y="0"></use><text x="0" y="3.8409999999999997" class="f">&gt;</text><text x="2.004" y="3.8409999999999997" class="f">loadedNamespace</text></svg><svg x="3920"><use xlink:href="#a"></use><use xlink:href="#b" x="17.996" y="2.146"></use><use xlink:href="#7" y="0"></use><text x="0" y="3.8409999999999997" class="f">&gt;</text><text x="2.004" y="3.8409999999999997" class="f">loadedNamespaces</text></svg><svg x="4000"><use xlink:href="#a"></use><use xlink:href="#b" x="18.996" y="2.146"></use><use xlink:href="#7" y="0"></use><text x="0" y="3.8409999999999997" class="f">&gt;</text><text x="2.004" y="3.8409999999999997" class="f">loadedNamespaces(</text></svg><svg x="4080"><use xlink:href="#a"></use><use xlink:href="#b" x="19.996" y="2.146"></use><use xlink:href="#7" y="0"></use><use xlink:href="#8" y="2.171"></use></svg><svg x="4160"><use xlink:href="#a"></use><use xlink:href="#b" x="-0.0040000000000000036" y="4.317"></use><use xlink:href="#7" y="0"></use><use xlink:href="#8" y="2.171"></use></svg><svg x="4240"><use xlink:href="#a"></use><use xlink:href="#b" x="-0.0040000000000000036" y="13.001"></use><use xlink:href="#7" y="0"></use><use xlink:href="#8" y="2.171"></use><use xlink:href="#9" y="4.342"></use><use xlink:href="#10" y="6.513"></use><use xlink:href="#11" y="8.684"></use><use xlink:href="#12" y="10.855"></use></svg><svg x="4320"><use xlink:href="#a"></use><use xlink:href="#b" x="1.996" y="13.001"></use><use xlink:href="#7" y="0"></use><use xlink:href="#8" y="2.171"></use><use xlink:href="#9" y="4.342"></use><use xlink:href="#10" y="6.513"></use><use xlink:href="#11" y="8.684"></use><use xlink:href="#12" y="10.855"></use><use xlink:href="#1" y="13.026"></use></svg><svg x="4400"><use xlink:href="#a"></use><use xlink:href="#b" x="1.996" y="13.001"></use><use xlink:href="#7" y="0"></use><use xlink:href="#8" y="2.171"></use><use xlink:href="#9" y="4.342"></use><use xlink:href="#10" y="6.513"></use><use xlink:href="#11" y="8.684"></use><use xlink:href="#12" y="10.855"></use><use xlink:href="#1" y="13.026"></use></svg></svg></g></g></svg></svg>