<svg xmlns="http://www.w3.org/2000/svg" xmlns:xlink="http://www.w3.org/1999/xlink" width="840" height="277.1"><rect width="840" height="277.1" rx="5" ry="5" class="a"></rect><svg y="0%" x="0%"><circle cx="20" cy="20" r="6" class="b"></circle><circle cx="40" cy="20" r="6" class="c"></circle><circle cx="60" cy="20" r="6" class="d"></circle></svg><svg height="217.10000000000002" viewBox="0 0 80 21.71" width="800" x="15" xmlns="http://www.w3.org/2000/svg" xmlns:xlink="http://www.w3.org/1999/xlink" y="50"><style>.a{fill:rgb(40,45,53)}.b{fill:#ff5f58}.c{fill:#ffbd2e}.d{fill:#18c132}.e{font-family:Monaco,Consolas,Menlo,'Bitstream Vera Sans Mono','Powerline Symbols',monospace}.f{fill:transparent}.g{fill:rgb(111,118,131)}.h{fill:rgb(185,192,203)}</style><g font-size="1.67" class="e"><defs><symbol id="a"><rect height="10" width="80" x="0" y="0" class="f"></rect></symbol><symbol id="b"><rect height="2.171" width="1.1022" class="g"></rect></symbol></defs><rect height="21.71" width="80" class="a"></rect><svg x="0" y="0" width="80"><svg x="0"><use xlink:href="#a"></use><use xlink:href="#b" x="1.996" y="13.001"></use><text x="0" y="1.67" class="h">&gt;</text><text x="2.004" y="1.67" class="h">#</text><text x="4.008" y="1.67" class="h">This</text><text x="9.017999999999999" y="1.67" class="h">is</text><text x="12.024" y="1.67" class="h">an</text><text x="15.029999999999998" y="1.67" class="h">asciicast</text><text x="25.05" y="1.67" class="h">example</text><text x="0" y="3.8409999999999997" class="h">&gt;</text><text x="2.004" y="3.8409999999999997" class="h">loadedNamespaces()</text><text x="1.002" y="6.012" class="h">[1]</text><text x="5.01" y="6.012" class="h">&quot;compiler&quot;</text><text x="18.035999999999998" y="6.012" class="h">&quot;prettycode&quot;</text><text x="31.061999999999998" y="6.012" class="h">&quot;R6&quot;</text><text x="44.087999999999994" y="6.012" class="h">&quot;assertthat&quot;</text><text x="57.114" y="6.012" class="h">&quot;cli&quot;</text><text x="1.002" y="8.183" class="h">[6]</text><text x="5.01" y="8.183" class="h">&quot;clisymbols&quot;</text><text x="18.035999999999998" y="8.183" class="h">&quot;graphics&quot;</text><text x="31.061999999999998" y="8.183" class="h">&quot;whisker&quot;</text><text x="44.087999999999994" y="8.183" class="h">&quot;withr&quot;</text><text x="57.114" y="8.183" class="h">&quot;tracer&quot;</text><text x="0" y="10.354" class="h">[11]</text><text x="5.01" y="10.354" class="h">&quot;gitty&quot;</text><text x="18.035999999999998" y="10.354" class="h">&quot;utils&quot;</text><text x="31.061999999999998" y="10.354" class="h">&quot;grDevices&quot;</text><text x="44.087999999999994" y="10.354" class="h">&quot;stats&quot;</text><text x="57.114" y="10.354" class="h">&quot;crayon&quot;</text><text x="0" y="12.525" class="h">[16]</text><text x="5.01" y="12.525" class="h">&quot;datasets&quot;</text><text x="18.035999999999998" y="12.525" class="h">&quot;methods&quot;</text><text x="31.061999999999998" y="12.525" class="h">&quot;base&quot;</text><text x="44.087999999999994" y="12.525" class="h">&quot;rdoc&quot;</text><text x="0" y="14.696" class="h">&gt;</text></svg></svg></g></svg></svg>