<svg xmlns="http://www.w3.org/2000/svg" xmlns:xlink="http://www.w3.org/1999/xlink" width="1040" height="257.1"><rect width="1040" height="257.1" rx="0" ry="0" class="a"></rect><svg height="217.10000000000002" viewBox="0 0 100 21.71" width="1000" x="20" xmlns="http://www.w3.org/2000/svg" xmlns:xlink="http://www.w3.org/1999/xlink" y="20"><style>.a{fill:rgb(40,45,53)}.b{font-family:'Fira Code',Monaco,Consolas,Menlo,'Bitstream Vera Sans Mono','Powerline Symbols',monospace}.c{white-space:pre}.d{fill:rgb(232,131,136);white-space:pre}.e{fill:rgb(168,204,140);white-space:pre}.f{fill:rgb(219,171,121);white-space:pre}.g{fill:rgb(113,190,242);white-space:pre}.h{fill:rgb(210,144,228);white-space:pre}.i{fill:rgb(102,194,205);white-space:pre}.j{fill:rgb(185,191,202);white-space:pre}.k{fill:rgb(111,119,131);white-space:pre}.l{fill:rgb(115,190,243);white-space:pre}.m{fill:rgb(210,144,227);white-space:pre}.n{fill:rgb(255,255,255);white-space:pre}.o{fill:transparent}.p{fill:rgb(185,192,203);white-space:pre}</style><g font-family="&#x27;Fira Code&#x27;,Monaco,Consolas,Menlo,&#x27;Bitstream Vera Sans Mono&#x27;,&#x27;Powerline Symbols&#x27;,monospace" font-size="1.67" class="b"><defs><symbol id="1"><text x="0" y="1.67" class="c">████</text><text x="5.01" y="1.67" class="d">████</text><text x="10.02" y="1.67" class="e">████</text><text x="15.029999999999998" y="1.67" class="f">████</text><text x="20.04" y="1.67" class="g">████</text><text x="25.05" y="1.67" class="h">████</text><text x="30.059999999999995" y="1.67" class="i">████</text><text x="35.06999999999999" y="1.67" class="j">████</text><text x="41.082" y="1.67" class="k">████</text><text x="46.09199999999999" y="1.67" class="d">████</text><text x="51.102" y="1.67" class="e">████</text><text x="56.111999999999995" y="1.67" class="f">████</text><text x="61.12199999999999" y="1.67" class="l">████</text><text x="66.13199999999999" y="1.67" class="m">████</text><text x="71.142" y="1.67" class="i">████</text><text x="76.15199999999999" y="1.67" class="n">████</text></symbol><symbol id="a"><rect height="11" width="100" x="0" y="0" class="o"></rect></symbol></defs><rect height="21.71" width="100" class="a"></rect><svg x="0" y="0" width="100"><svg x="0"><use xlink:href="#a"></use><text x="0" y="1.67" class="p">&gt;</text><text x="2.004" y="1.67" class="p">cli::ansi_palette_show()</text><text x="53.105999999999995" y="3.8409999999999997" class="p">bright</text><text x="60.11999999999999" y="3.8409999999999997" class="p">variants</text><text x="0" y="6.012" class="p">blck</text><text x="5.01" y="6.012" class="p">red</text><text x="10.02" y="6.012" class="p">grn</text><text x="15.029999999999998" y="6.012" class="p">yllw</text><text x="20.04" y="6.012" class="p">blue</text><text x="25.05" y="6.012" class="p">mgnt</text><text x="30.059999999999995" y="6.012" class="p">cyan</text><text x="35.06999999999999" y="6.012" class="p">whte</text><text x="41.082" y="6.012" class="p">blck</text><text x="46.09199999999999" y="6.012" class="p">red</text><text x="51.102" y="6.012" class="p">grn</text><text x="56.111999999999995" y="6.012" class="p">yllw</text><text x="61.12199999999999" y="6.012" class="p">blue</text><text x="66.13199999999999" y="6.012" class="p">mgnt</text><text x="71.142" y="6.012" class="p">cyan</text><text x="76.15199999999999" y="6.012" class="p">whte</text><use xlink:href="#1" y="8.684"></use><use xlink:href="#1" y="10.855"></use><use xlink:href="#1" y="13.026"></use><use xlink:href="#1" y="15.197"></use></svg></svg></g></svg></svg>