<svg xmlns="http://www.w3.org/2000/svg" xmlns:xlink="http://www.w3.org/1999/xlink" width="1040" height="257.1"><rect width="1040" height="257.1" rx="0" ry="0" class="a"></rect><svg height="217.10000000000002" viewBox="0 0 100 21.71" width="1000" x="20" xmlns="http://www.w3.org/2000/svg" xmlns:xlink="http://www.w3.org/1999/xlink" y="20"><style>.a{fill:rgb(40,45,53)}.b{font-family:'Fira Code',Monaco,Consolas,Menlo,'Bitstream Vera Sans Mono','Powerline Symbols',monospace}.c{fill:transparent}.d{fill:rgb(185,192,203);white-space:pre}</style><g font-family="&#x27;Fira Code&#x27;,Monaco,Consolas,Menlo,&#x27;Bitstream Vera Sans Mono&#x27;,&#x27;Powerline Symbols&#x27;,monospace" font-size="1.67" class="b"><defs><symbol id="a"><rect height="10" width="100" x="0" y="0" class="c"></rect></symbol></defs><rect height="21.71" width="100" class="a"></rect><svg x="0" y="0" width="100"><svg x="0"><use xlink:href="#a"></use><text x="0" y="1.67" class="d">&gt;</text><text x="2.004" y="1.67" class="d">#</text><text x="4.008" y="1.67" class="d">Let&#x27;s</text><text x="10.02" y="1.67" class="d">evaluate</text><text x="19.037999999999997" y="1.67" class="d">some</text><text x="24.048" y="1.67" class="d">code</text><text x="0" y="3.8409999999999997" class="d">&gt;</text><text x="2.004" y="3.8409999999999997" class="d">head(mtcars)</text><text x="19.037999999999997" y="6.012" class="d">mpg</text><text x="23.045999999999996" y="6.012" class="d">cyl</text><text x="27.054" y="6.012" class="d">disp</text><text x="33.065999999999995" y="6.012" class="d">hp</text><text x="36.071999999999996" y="6.012" class="d">drat</text><text x="44.087999999999994" y="6.012" class="d">wt</text><text x="48.096" y="6.012" class="d">qsec</text><text x="53.105999999999995" y="6.012" class="d">vs</text><text x="56.111999999999995" y="6.012" class="d">am</text><text x="59.117999999999995" y="6.012" class="d">gear</text><text x="64.128" y="6.012" class="d">carb</text><text x="0" y="8.183" class="d">Mazda</text><text x="6.012" y="8.183" class="d">RX4</text><text x="18.035999999999998" y="8.183" class="d">21.0</text><text x="25.05" y="8.183" class="d">6</text><text x="28.055999999999997" y="8.183" class="d">160</text><text x="32.064" y="8.183" class="d">110</text><text x="36.071999999999996" y="8.183" class="d">3.90</text><text x="41.082" y="8.183" class="d">2.620</text><text x="47.093999999999994" y="8.183" class="d">16.46</text><text x="54.108" y="8.183" class="d">0</text><text x="57.114" y="8.183" class="d">1</text><text x="62.123999999999995" y="8.183" class="d">4</text><text x="67.134" y="8.183" class="d">4</text><text x="0" y="10.354" class="d">Mazda</text><text x="6.012" y="10.354" class="d">RX4</text><text x="10.02" y="10.354" class="d">Wag</text><text x="18.035999999999998" y="10.354" class="d">21.0</text><text x="25.05" y="10.354" class="d">6</text><text x="28.055999999999997" y="10.354" class="d">160</text><text x="32.064" y="10.354" class="d">110</text><text x="36.071999999999996" y="10.354" class="d">3.90</text><text x="41.082" y="10.354" class="d">2.875</text><text x="47.093999999999994" y="10.354" class="d">17.02</text><text x="54.108" y="10.354" class="d">0</text><text x="57.114" y="10.354" class="d">1</text><text x="62.123999999999995" y="10.354" class="d">4</text><text x="67.134" y="10.354" class="d">4</text><text x="0" y="12.525" class="d">Datsun</text><text x="7.013999999999999" y="12.525" class="d">710</text><text x="18.035999999999998" y="12.525" class="d">22.8</text><text x="25.05" y="12.525" class="d">4</text><text x="28.055999999999997" y="12.525" class="d">108</text><text x="33.065999999999995" y="12.525" class="d">93</text><text x="36.071999999999996" y="12.525" class="d">3.85</text><text x="41.082" y="12.525" class="d">2.320</text><text x="47.093999999999994" y="12.525" class="d">18.61</text><text x="54.108" y="12.525" class="d">1</text><text x="57.114" y="12.525" class="d">1</text><text x="62.123999999999995" y="12.525" class="d">4</text><text x="67.134" y="12.525" class="d">1</text><text x="0" y="14.696" class="d">Hornet</text><text x="7.013999999999999" y="14.696" class="d">4</text><text x="9.017999999999999" y="14.696" class="d">Drive</text><text x="18.035999999999998" y="14.696" class="d">21.4</text><text x="25.05" y="14.696" class="d">6</text><text x="28.055999999999997" y="14.696" class="d">258</text><text x="32.064" y="14.696" class="d">110</text><text x="36.071999999999996" y="14.696" class="d">3.08</text><text x="41.082" y="14.696" class="d">3.215</text><text x="47.093999999999994" y="14.696" class="d">19.44</text><text x="54.108" y="14.696" class="d">1</text><text x="57.114" y="14.696" class="d">0</text><text x="62.123999999999995" y="14.696" class="d">3</text><text x="67.134" y="14.696" class="d">1</text><text x="0" y="16.866999999999997" class="d">Hornet</text><text x="7.013999999999999" y="16.866999999999997" class="d">Sportabout</text><text x="18.035999999999998" y="16.866999999999997" class="d">18.7</text><text x="25.05" y="16.866999999999997" class="d">8</text><text x="28.055999999999997" y="16.866999999999997" class="d">360</text><text x="32.064" y="16.866999999999997" class="d">175</text><text x="36.071999999999996" y="16.866999999999997" class="d">3.15</text><text x="41.082" y="16.866999999999997" class="d">3.440</text><text x="47.093999999999994" y="16.866999999999997" class="d">17.02</text><text x="54.108" y="16.866999999999997" class="d">0</text><text x="57.114" y="16.866999999999997" class="d">0</text><text x="62.123999999999995" y="16.866999999999997" class="d">3</text><text x="67.134" y="16.866999999999997" class="d">2</text><text x="0" y="19.037999999999997" class="d">Valiant</text><text x="18.035999999999998" y="19.037999999999997" class="d">18.1</text><text x="25.05" y="19.037999999999997" class="d">6</text><text x="28.055999999999997" y="19.037999999999997" class="d">225</text><text x="32.064" y="19.037999999999997" class="d">105</text><text x="36.071999999999996" y="19.037999999999997" class="d">2.76</text><text x="41.082" y="19.037999999999997" class="d">3.460</text><text x="47.093999999999994" y="19.037999999999997" class="d">20.22</text><text x="54.108" y="19.037999999999997" class="d">1</text><text x="57.114" y="19.037999999999997" class="d">0</text><text x="62.123999999999995" y="19.037999999999997" class="d">3</text><text x="67.134" y="19.037999999999997" class="d">1</text></svg></svg></g></svg></svg>