<svg xmlns="http://www.w3.org/2000/svg" xmlns:xlink="http://www.w3.org/1999/xlink" width="1040" height="148.55"><rect width="1040" height="148.55" rx="0" ry="0" class="a"></rect><svg height="108.55000000000001" viewBox="0 0 100 10.855" width="1000" x="20" xmlns="http://www.w3.org/2000/svg" xmlns:xlink="http://www.w3.org/1999/xlink" y="20"><style>.a{fill:rgb(40,45,53)}.b{font-family:'Fira Code',Monaco,Consolas,Menlo,'Bitstream Vera Sans Mono','Powerline Symbols',monospace}.c{fill:transparent}.d{fill:rgb(185,192,203);white-space:pre}</style><g font-family="&#x27;Fira Code&#x27;,Monaco,Consolas,Menlo,&#x27;Bitstream Vera Sans Mono&#x27;,&#x27;Powerline Symbols&#x27;,monospace" font-size="1.67" class="b"><defs><symbol id="a"><rect height="5" width="100" x="0" y="0" class="c"></rect></symbol></defs><rect height="10.855" width="100" class="a"></rect><svg x="0" y="0" width="100"><svg x="0"><use xlink:href="#a"></use><text x="0" y="1.67" class="d">&gt;</text><text x="2.004" y="1.67" class="d">#</text><text x="4.008" y="1.67" class="d">Not</text><text x="8.016" y="1.67" class="d">much</text><text x="13.026" y="1.67" class="d">here,</text><text x="19.037999999999997" y="1.67" class="d">so</text><text x="22.043999999999997" y="1.67" class="d">avoid</text><text x="28.055999999999997" y="1.67" class="d">a</text><text x="30.059999999999995" y="1.67" class="d">big</text><text x="34.068" y="1.67" class="d">widget</text><text x="0" y="3.8409999999999997" class="d">&gt;</text><text x="2.004" y="3.8409999999999997" class="d">1</text><text x="4.008" y="3.8409999999999997" class="d">+</text><text x="6.012" y="3.8409999999999997" class="d">2</text><text x="8.016" y="3.8409999999999997" class="d">+</text><text x="10.02" y="3.8409999999999997" class="d">3</text><text x="12.024" y="3.8409999999999997" class="d">+</text><text x="14.027999999999999" y="3.8409999999999997" class="d">4</text><text x="0" y="6.012" class="d">[1]</text><text x="4.008" y="6.012" class="d">10</text></svg></svg></g></svg></svg>