<svg xmlns="http://www.w3.org/2000/svg" xmlns:xlink="http://www.w3.org/1999/xlink" width="1040" height="148.55"><rect width="1040" height="148.55" rx="0" ry="0" class="a"></rect><svg height="108.55000000000001" viewBox="0 0 100 10.855" width="1000" x="20" xmlns="http://www.w3.org/2000/svg" xmlns:xlink="http://www.w3.org/1999/xlink" y="20"><style>.a{fill:rgb(40,45,53)}.b{font-family:'Fira Code',Monaco,Consolas,Menlo,'Bitstream Vera Sans Mono','Powerline Symbols',monospace}.c{fill:transparent}.d{fill:rgb(185,192,203);white-space:pre}</style><g font-family="&#x27;Fira Code&#x27;,Monaco,Consolas,Menlo,&#x27;Bitstream Vera Sans Mono&#x27;,&#x27;Powerline Symbols&#x27;,monospace" font-size="1.67" class="b"><defs><symbol id="a"><rect height="5" width="100" x="0" y="0" class="c"></rect></symbol></defs><rect height="10.855" width="100" class="a"></rect><svg x="0" y="0" width="100"><svg x="0"><use xlink:href="#a"></use><text x="15.029999999999998" y="1.67" class="d">mpg</text><text x="19.037999999999997" y="1.67" class="d">cyl</text><text x="23.045999999999996" y="1.67" class="d">disp</text><text x="29.058" y="1.67" class="d">hp</text><text x="32.064" y="1.67" class="d">drat</text><text x="40.08" y="1.67" class="d">wt</text><text x="44.087999999999994" y="1.67" class="d">qsec</text><text x="49.098" y="1.67" class="d">vs</text><text x="52.104" y="1.67" class="d">am</text><text x="55.10999999999999" y="1.67" class="d">gear</text><text x="60.11999999999999" y="1.67" class="d">carb</text><text x="0" y="3.8409999999999997" class="d">Mazda</text><text x="6.012" y="3.8409999999999997" class="d">RX4</text><text x="14.027999999999999" y="3.8409999999999997" class="d">21.0</text><text x="21.041999999999998" y="3.8409999999999997" class="d">6</text><text x="24.048" y="3.8409999999999997" class="d">160</text><text x="28.055999999999997" y="3.8409999999999997" class="d">110</text><text x="32.064" y="3.8409999999999997" class="d">3.90</text><text x="37.074" y="3.8409999999999997" class="d">2.620</text><text x="43.086" y="3.8409999999999997" class="d">16.46</text><text x="50.1" y="3.8409999999999997" class="d">0</text><text x="53.105999999999995" y="3.8409999999999997" class="d">1</text><text x="58.116" y="3.8409999999999997" class="d">4</text><text x="63.12599999999999" y="3.8409999999999997" class="d">4</text><text x="0" y="6.012" class="d">Mazda</text><text x="6.012" y="6.012" class="d">RX4</text><text x="10.02" y="6.012" class="d">Wag</text><text x="14.027999999999999" y="6.012" class="d">21.0</text><text x="21.041999999999998" y="6.012" class="d">6</text><text x="24.048" y="6.012" class="d">160</text><text x="28.055999999999997" y="6.012" class="d">110</text><text x="32.064" y="6.012" class="d">3.90</text><text x="37.074" y="6.012" class="d">2.875</text><text x="43.086" y="6.012" class="d">17.02</text><text x="50.1" y="6.012" class="d">0</text><text x="53.105999999999995" y="6.012" class="d">1</text><text x="58.116" y="6.012" class="d">4</text><text x="63.12599999999999" y="6.012" class="d">4</text><text x="0" y="8.183" class="d">Datsun</text><text x="7.013999999999999" y="8.183" class="d">710</text><text x="14.027999999999999" y="8.183" class="d">22.8</text><text x="21.041999999999998" y="8.183" class="d">4</text><text x="24.048" y="8.183" class="d">108</text><text x="29.058" y="8.183" class="d">93</text><text x="32.064" y="8.183" class="d">3.85</text><text x="37.074" y="8.183" class="d">2.320</text><text x="43.086" y="8.183" class="d">18.61</text><text x="50.1" y="8.183" class="d">1</text><text x="53.105999999999995" y="8.183" class="d">1</text><text x="58.116" y="8.183" class="d">4</text><text x="63.12599999999999" y="8.183" class="d">1</text></svg></svg></g></svg></svg>