<svg xmlns="http://www.w3.org/2000/svg" xmlns:xlink="http://www.w3.org/1999/xlink" width="840" height="385.65"><rect width="840" height="385.65" rx="5" ry="5" class="a"></rect><svg y="0%" x="0%"><circle cx="20" cy="20" r="6" class="b"></circle><circle cx="40" cy="20" r="6" class="c"></circle><circle cx="60" cy="20" r="6" class="d"></circle></svg><svg height="325.65" viewBox="0 0 80 32.565" width="800" x="15" xmlns="http://www.w3.org/2000/svg" xmlns:xlink="http://www.w3.org/1999/xlink" y="50"><style>.a{fill:rgb(40,45,53)}.b{fill:#ff5f58}.c{fill:#ffbd2e}.d{fill:#18c132}.e{font-family:Monaco,Consolas,Menlo,'Bitstream Vera Sans Mono','Powerline Symbols',monospace}.f{fill:rgb(185,192,203)}.g{fill:rgb(185,192,203);font-weight:bold}.h{fill:transparent}.i{fill:rgb(111,118,131)}.k{animation-duration:14.8817610740662s;animation-iteration-count:infinite;animation-name:j;animation-timing-function:steps(1,end)}@keyframes j{0%{transform:translateX(-0px)}0.3%{transform:translateX(-80px)}13.8%{transform:translateX(-160px)}14.2%{transform:translateX(-240px)}14.7%{transform:translateX(-320px)}14.9%{transform:translateX(-400px)}15.4%{transform:translateX(-480px)}15.8%{transform:translateX(-560px)}16.1%{transform:translateX(-640px)}16.5%{transform:translateX(-720px)}16.9%{transform:translateX(-800px)}17.3%{transform:translateX(-880px)}17.5%{transform:translateX(-960px)}17.8%{transform:translateX(-1040px)}18.2%{transform:translateX(-1120px)}18.7%{transform:translateX(-1200px)}18.9%{transform:translateX(-1280px)}19.2%{transform:translateX(-1360px)}19.7%{transform:translateX(-1440px)}20%{transform:translateX(-1520px)}20.5%{transform:translateX(-1600px)}21%{transform:translateX(-1680px)}21.3%{transform:translateX(-1760px)}21.8%{transform:translateX(-1840px)}22.2%{transform:translateX(-1920px)}22.4%{transform:translateX(-2000px)}22.9%{transform:translateX(-2080px)}23.4%{transform:translateX(-2160px)}23.8%{transform:translateX(-2240px)}24.2%{transform:translateX(-2320px)}24.7%{transform:translateX(-2400px)}25.2%{transform:translateX(-2480px)}25.4%{transform:translateX(-2560px)}25.6%{transform:translateX(-2640px)}26.1%{transform:translateX(-2720px)}26.6%{transform:translateX(-2800px)}26.8%{transform:translateX(-2880px)}27.3%{transform:translateX(-2960px)}27.8%{transform:translateX(-3040px)}28.3%{transform:translateX(-3120px)}28.7%{transform:translateX(-3200px)}29%{transform:translateX(-3280px)}29.4%{transform:translateX(-3360px)}29.7%{transform:translateX(-3440px)}30%{transform:translateX(-3520px)}30%{transform:translateX(-3600px)}30.2%{transform:translateX(-3680px)}30.2%{transform:translateX(-3760px)}37.1%{transform:translateX(-3840px)}37.4%{transform:translateX(-3920px)}37.9%{transform:translateX(-4000px)}38.1%{transform:translateX(-4080px)}38.3%{transform:translateX(-4160px)}38.8%{transform:translateX(-4240px)}39.1%{transform:translateX(-4320px)}39.3%{transform:translateX(-4400px)}39.5%{transform:translateX(-4480px)}40%{transform:translateX(-4560px)}40.2%{transform:translateX(-4640px)}40.7%{transform:translateX(-4720px)}41%{transform:translateX(-4800px)}41.5%{transform:translateX(-4880px)}41.9%{transform:translateX(-4960px)}42.2%{transform:translateX(-5040px)}42.5%{transform:translateX(-5120px)}42.7%{transform:translateX(-5200px)}43%{transform:translateX(-5280px)}43.4%{transform:translateX(-5360px)}43.6%{transform:translateX(-5440px)}44%{transform:translateX(-5520px)}44.3%{transform:translateX(-5600px)}44.8%{transform:translateX(-5680px)}45.3%{transform:translateX(-5760px)}45.7%{transform:translateX(-5840px)}46.2%{transform:translateX(-5920px)}46.2%{transform:translateX(-6000px)}46.2%{transform:translateX(-6080px)}46.6%{transform:translateX(-6160px)}46.6%{transform:translateX(-6240px)}53.4%{transform:translateX(-6320px)}53.9%{transform:translateX(-6400px)}54.3%{transform:translateX(-6480px)}54.7%{transform:translateX(-6560px)}55.1%{transform:translateX(-6640px)}55.6%{transform:translateX(-6720px)}56.1%{transform:translateX(-6800px)}56.4%{transform:translateX(-6880px)}56.7%{transform:translateX(-6960px)}57%{transform:translateX(-7040px)}57.5%{transform:translateX(-7120px)}58%{transform:translateX(-7200px)}58%{transform:translateX(-7280px)}58%{transform:translateX(-7360px)}58.2%{transform:translateX(-7440px)}58.2%{transform:translateX(-7520px)}65%{transform:translateX(-7600px)}65.2%{transform:translateX(-7680px)}65.7%{transform:translateX(-7760px)}66%{transform:translateX(-7840px)}66%{transform:translateX(-7920px)}66%{transform:translateX(-8000px)}100%{transform:translateX(-8080px)}}</style><g font-size="1.67" class="e"><defs><symbol id="1"><text x="0" y="1.67" class="f">&gt;</text></symbol><symbol id="2"><text x="0" y="1.67" class="f">&gt;</text><text x="2.004" y="1.67" class="f">#</text></symbol><symbol id="3"><text x="0" y="1.67" class="f">&gt;</text><text x="2.004" y="1.67" class="f">#</text><text x="4.008" y="1.67" class="f">Demonstrate</text></symbol><symbol id="4"><text x="0" y="1.67" class="f">&gt;</text><text x="2.004" y="1.67" class="f">#</text><text x="4.008" y="1.67" class="f">Demonstrate</text><text x="16.032" y="1.67" class="f">that</text></symbol><symbol id="5"><text x="0" y="1.67" class="f">&gt;</text><text x="2.004" y="1.67" class="f">#</text><text x="4.008" y="1.67" class="f">Demonstrate</text><text x="16.032" y="1.67" class="f">that</text><text x="21.041999999999998" y="1.67" class="f">errors</text></symbol><symbol id="6"><text x="0" y="1.67" class="f">&gt;</text><text x="2.004" y="1.67" class="f">#</text><text x="4.008" y="1.67" class="f">Demonstrate</text><text x="16.032" y="1.67" class="f">that</text><text x="21.041999999999998" y="1.67" class="f">errors</text><text x="28.055999999999997" y="1.67" class="f">are</text></symbol><symbol id="7"><text x="0" y="1.67" class="f">&gt;</text><text x="2.004" y="1.67" class="f">#</text><text x="4.008" y="1.67" class="f">Demonstrate</text><text x="16.032" y="1.67" class="f">that</text><text x="21.041999999999998" y="1.67" class="f">errors</text><text x="28.055999999999997" y="1.67" class="f">are</text><text x="32.064" y="1.67" class="f">handled</text></symbol><symbol id="8"><text x="0" y="1.67" class="f">&gt;</text><text x="2.004" y="1.67" class="f">#</text><text x="4.008" y="1.67" class="f">Demonstrate</text><text x="16.032" y="1.67" class="f">that</text><text x="21.041999999999998" y="1.67" class="f">errors</text><text x="28.055999999999997" y="1.67" class="f">are</text><text x="32.064" y="1.67" class="f">handled</text><text x="40.08" y="1.67" class="f">well</text></symbol><symbol id="9"><text x="0" y="1.67" class="f">&gt;</text><text x="2.004" y="1.67" class="f">library(&quot;not-this-really&quot;)</text></symbol><symbol id="10"><text x="0" y="1.67" class="g">Error</text><text x="6.012" y="1.67" class="g">in</text><text x="9.017999999999999" y="1.67" class="g">library(&quot;not-this-really&quot;)</text><text x="36.071999999999996" y="1.67" class="g">:</text></symbol><symbol id="11"><text x="2.004" y="1.67" class="g">there</text><text x="8.016" y="1.67" class="g">is</text><text x="11.021999999999998" y="1.67" class="g">no</text><text x="14.027999999999999" y="1.67" class="g">package</text><text x="22.043999999999997" y="1.67" class="g">called</text><text x="29.058" y="1.67" class="g">‘not-this-really’</text></symbol><symbol id="12"><text x="0" y="1.67" class="f">&gt;</text><text x="2.004" y="1.67" class="f">traceback()</text></symbol><symbol id="13"><text x="0" y="1.67" class="f">2:</text><text x="3.006" y="1.67" class="f">stop(packageNotFoundError(package,</text><text x="38.07599999999999" y="1.67" class="f">lib.loc,</text><text x="47.093999999999994" y="1.67" class="f">sys.call()))</text></symbol><symbol id="14"><text x="0" y="1.67" class="f">1:</text><text x="3.006" y="1.67" class="f">library(&quot;not-this-really&quot;)</text></symbol><symbol id="15"><text x="0" y="1.67" class="f">&gt;</text><text x="2.004" y="1.67" class="f">1+1</text></symbol><symbol id="16"><text x="0" y="1.67" class="f">[1]</text><text x="4.008" y="1.67" class="f">2</text></symbol><symbol id="a"><rect height="15" width="80" x="0" y="0" class="h"></rect></symbol><symbol id="b"><rect height="2.171" width="1.1022" class="i"></rect></symbol></defs><rect height="32.565" width="80" class="a"></rect><g class="k"><svg x="0" y="0" width="8160"><svg x="0"><use xlink:href="#a"></use><use xlink:href="#b" x="-0.0040000000000000036" y="0"></use></svg><svg x="80"><use xlink:href="#a"></use><use xlink:href="#b" x="1.996" y="0"></use><use xlink:href="#1" y="0"></use></svg><svg x="160"><use xlink:href="#a"></use><use xlink:href="#b" x="2.996" y="0"></use><use xlink:href="#2" y="0"></use></svg><svg x="240"><use xlink:href="#a"></use><use xlink:href="#b" x="3.996" y="0"></use><use xlink:href="#2" y="0"></use></svg><svg x="320"><use xlink:href="#a"></use><use xlink:href="#b" x="4.996" y="0"></use><text x="0" y="1.67" class="f">&gt;</text><text x="2.004" y="1.67" class="f">#</text><text x="4.008" y="1.67" class="f">D</text></svg><svg x="400"><use xlink:href="#a"></use><use xlink:href="#b" x="5.996" y="0"></use><text x="0" y="1.67" class="f">&gt;</text><text x="2.004" y="1.67" class="f">#</text><text x="4.008" y="1.67" class="f">De</text></svg><svg x="480"><use xlink:href="#a"></use><use xlink:href="#b" x="6.996" y="0"></use><text x="0" y="1.67" class="f">&gt;</text><text x="2.004" y="1.67" class="f">#</text><text x="4.008" y="1.67" class="f">Dem</text></svg><svg x="560"><use xlink:href="#a"></use><use xlink:href="#b" x="7.996" y="0"></use><text x="0" y="1.67" class="f">&gt;</text><text x="2.004" y="1.67" class="f">#</text><text x="4.008" y="1.67" class="f">Demo</text></svg><svg x="640"><use xlink:href="#a"></use><use xlink:href="#b" x="8.996" y="0"></use><text x="0" y="1.67" class="f">&gt;</text><text x="2.004" y="1.67" class="f">#</text><text x="4.008" y="1.67" class="f">Demon</text></svg><svg x="720"><use xlink:href="#a"></use><use xlink:href="#b" x="9.996" y="0"></use><text x="0" y="1.67" class="f">&gt;</text><text x="2.004" y="1.67" class="f">#</text><text x="4.008" y="1.67" class="f">Demons</text></svg><svg x="800"><use xlink:href="#a"></use><use xlink:href="#b" x="10.996" y="0"></use><text x="0" y="1.67" class="f">&gt;</text><text x="2.004" y="1.67" class="f">#</text><text x="4.008" y="1.67" class="f">Demonst</text></svg><svg x="880"><use xlink:href="#a"></use><use xlink:href="#b" x="11.996" y="0"></use><text x="0" y="1.67" class="f">&gt;</text><text x="2.004" y="1.67" class="f">#</text><text x="4.008" y="1.67" class="f">Demonstr</text></svg><svg x="960"><use xlink:href="#a"></use><use xlink:href="#b" x="12.996" y="0"></use><text x="0" y="1.67" class="f">&gt;</text><text x="2.004" y="1.67" class="f">#</text><text x="4.008" y="1.67" class="f">Demonstra</text></svg><svg x="1040"><use xlink:href="#a"></use><use xlink:href="#b" x="13.996" y="0"></use><text x="0" y="1.67" class="f">&gt;</text><text x="2.004" y="1.67" class="f">#</text><text x="4.008" y="1.67" class="f">Demonstrat</text></svg><svg x="1120"><use xlink:href="#a"></use><use xlink:href="#b" x="14.996" y="0"></use><use xlink:href="#3" y="0"></use></svg><svg x="1200"><use xlink:href="#a"></use><use xlink:href="#b" x="15.996" y="0"></use><use xlink:href="#3" y="0"></use></svg><svg x="1280"><use xlink:href="#a"></use><use xlink:href="#b" x="16.996" y="0"></use><text x="0" y="1.67" class="f">&gt;</text><text x="2.004" y="1.67" class="f">#</text><text x="4.008" y="1.67" class="f">Demonstrate</text><text x="16.032" y="1.67" class="f">t</text></svg><svg x="1360"><use xlink:href="#a"></use><use xlink:href="#b" x="17.996" y="0"></use><text x="0" y="1.67" class="f">&gt;</text><text x="2.004" y="1.67" class="f">#</text><text x="4.008" y="1.67" class="f">Demonstrate</text><text x="16.032" y="1.67" class="f">th</text></svg><svg x="1440"><use xlink:href="#a"></use><use xlink:href="#b" x="18.996" y="0"></use><text x="0" y="1.67" class="f">&gt;</text><text x="2.004" y="1.67" class="f">#</text><text x="4.008" y="1.67" class="f">Demonstrate</text><text x="16.032" y="1.67" class="f">tha</text></svg><svg x="1520"><use xlink:href="#a"></use><use xlink:href="#b" x="19.996" y="0"></use><use xlink:href="#4" y="0"></use></svg><svg x="1600"><use xlink:href="#a"></use><use xlink:href="#b" x="20.996" y="0"></use><use xlink:href="#4" y="0"></use></svg><svg x="1680"><use xlink:href="#a"></use><use xlink:href="#b" x="21.996" y="0"></use><text x="0" y="1.67" class="f">&gt;</text><text x="2.004" y="1.67" class="f">#</text><text x="4.008" y="1.67" class="f">Demonstrate</text><text x="16.032" y="1.67" class="f">that</text><text x="21.041999999999998" y="1.67" class="f">e</text></svg><svg x="1760"><use xlink:href="#a"></use><use xlink:href="#b" x="22.996" y="0"></use><text x="0" y="1.67" class="f">&gt;</text><text x="2.004" y="1.67" class="f">#</text><text x="4.008" y="1.67" class="f">Demonstrate</text><text x="16.032" y="1.67" class="f">that</text><text x="21.041999999999998" y="1.67" class="f">er</text></svg><svg x="1840"><use xlink:href="#a"></use><use xlink:href="#b" x="23.996" y="0"></use><text x="0" y="1.67" class="f">&gt;</text><text x="2.004" y="1.67" class="f">#</text><text x="4.008" y="1.67" class="f">Demonstrate</text><text x="16.032" y="1.67" class="f">that</text><text x="21.041999999999998" y="1.67" class="f">err</text></svg><svg x="1920"><use xlink:href="#a"></use><use xlink:href="#b" x="24.996" y="0"></use><text x="0" y="1.67" class="f">&gt;</text><text x="2.004" y="1.67" class="f">#</text><text x="4.008" y="1.67" class="f">Demonstrate</text><text x="16.032" y="1.67" class="f">that</text><text x="21.041999999999998" y="1.67" class="f">erro</text></svg><svg x="2000"><use xlink:href="#a"></use><use xlink:href="#b" x="25.996" y="0"></use><text x="0" y="1.67" class="f">&gt;</text><text x="2.004" y="1.67" class="f">#</text><text x="4.008" y="1.67" class="f">Demonstrate</text><text x="16.032" y="1.67" class="f">that</text><text x="21.041999999999998" y="1.67" class="f">error</text></svg><svg x="2080"><use xlink:href="#a"></use><use xlink:href="#b" x="26.996" y="0"></use><use xlink:href="#5" y="0"></use></svg><svg x="2160"><use xlink:href="#a"></use><use xlink:href="#b" x="27.996" y="0"></use><use xlink:href="#5" y="0"></use></svg><svg x="2240"><use xlink:href="#a"></use><use xlink:href="#b" x="28.996" y="0"></use><text x="0" y="1.67" class="f">&gt;</text><text x="2.004" y="1.67" class="f">#</text><text x="4.008" y="1.67" class="f">Demonstrate</text><text x="16.032" y="1.67" class="f">that</text><text x="21.041999999999998" y="1.67" class="f">errors</text><text x="28.055999999999997" y="1.67" class="f">a</text></svg><svg x="2320"><use xlink:href="#a"></use><use xlink:href="#b" x="29.996" y="0"></use><text x="0" y="1.67" class="f">&gt;</text><text x="2.004" y="1.67" class="f">#</text><text x="4.008" y="1.67" class="f">Demonstrate</text><text x="16.032" y="1.67" class="f">that</text><text x="21.041999999999998" y="1.67" class="f">errors</text><text x="28.055999999999997" y="1.67" class="f">ar</text></svg><svg x="2400"><use xlink:href="#a"></use><use xlink:href="#b" x="30.996" y="0"></use><use xlink:href="#6" y="0"></use></svg><svg x="2480"><use xlink:href="#a"></use><use xlink:href="#b" x="31.996" y="0"></use><use xlink:href="#6" y="0"></use></svg><svg x="2560"><use xlink:href="#a"></use><use xlink:href="#b" x="32.996" y="0"></use><text x="0" y="1.67" class="f">&gt;</text><text x="2.004" y="1.67" class="f">#</text><text x="4.008" y="1.67" class="f">Demonstrate</text><text x="16.032" y="1.67" class="f">that</text><text x="21.041999999999998" y="1.67" class="f">errors</text><text x="28.055999999999997" y="1.67" class="f">are</text><text x="32.064" y="1.67" class="f">h</text></svg><svg x="2640"><use xlink:href="#a"></use><use xlink:href="#b" x="33.996" y="0"></use><text x="0" y="1.67" class="f">&gt;</text><text x="2.004" y="1.67" class="f">#</text><text x="4.008" y="1.67" class="f">Demonstrate</text><text x="16.032" y="1.67" class="f">that</text><text x="21.041999999999998" y="1.67" class="f">errors</text><text x="28.055999999999997" y="1.67" class="f">are</text><text x="32.064" y="1.67" class="f">ha</text></svg><svg x="2720"><use xlink:href="#a"></use><use xlink:href="#b" x="34.996" y="0"></use><text x="0" y="1.67" class="f">&gt;</text><text x="2.004" y="1.67" class="f">#</text><text x="4.008" y="1.67" class="f">Demonstrate</text><text x="16.032" y="1.67" class="f">that</text><text x="21.041999999999998" y="1.67" class="f">errors</text><text x="28.055999999999997" y="1.67" class="f">are</text><text x="32.064" y="1.67" class="f">han</text></svg><svg x="2800"><use xlink:href="#a"></use><use xlink:href="#b" x="35.996" y="0"></use><text x="0" y="1.67" class="f">&gt;</text><text x="2.004" y="1.67" class="f">#</text><text x="4.008" y="1.67" class="f">Demonstrate</text><text x="16.032" y="1.67" class="f">that</text><text x="21.041999999999998" y="1.67" class="f">errors</text><text x="28.055999999999997" y="1.67" class="f">are</text><text x="32.064" y="1.67" class="f">hand</text></svg><svg x="2880"><use xlink:href="#a"></use><use xlink:href="#b" x="36.996" y="0"></use><text x="0" y="1.67" class="f">&gt;</text><text x="2.004" y="1.67" class="f">#</text><text x="4.008" y="1.67" class="f">Demonstrate</text><text x="16.032" y="1.67" class="f">that</text><text x="21.041999999999998" y="1.67" class="f">errors</text><text x="28.055999999999997" y="1.67" class="f">are</text><text x="32.064" y="1.67" class="f">handl</text></svg><svg x="2960"><use xlink:href="#a"></use><use xlink:href="#b" x="37.996" y="0"></use><text x="0" y="1.67" class="f">&gt;</text><text x="2.004" y="1.67" class="f">#</text><text x="4.008" y="1.67" class="f">Demonstrate</text><text x="16.032" y="1.67" class="f">that</text><text x="21.041999999999998" y="1.67" class="f">errors</text><text x="28.055999999999997" y="1.67" class="f">are</text><text x="32.064" y="1.67" class="f">handle</text></svg><svg x="3040"><use xlink:href="#a"></use><use xlink:href="#b" x="38.996" y="0"></use><use xlink:href="#7" y="0"></use></svg><svg x="3120"><use xlink:href="#a"></use><use xlink:href="#b" x="39.996" y="0"></use><use xlink:href="#7" y="0"></use></svg><svg x="3200"><use xlink:href="#a"></use><use xlink:href="#b" x="40.996" y="0"></use><text x="0" y="1.67" class="f">&gt;</text><text x="2.004" y="1.67" class="f">#</text><text x="4.008" y="1.67" class="f">Demonstrate</text><text x="16.032" y="1.67" class="f">that</text><text x="21.041999999999998" y="1.67" class="f">errors</text><text x="28.055999999999997" y="1.67" class="f">are</text><text x="32.064" y="1.67" class="f">handled</text><text x="40.08" y="1.67" class="f">w</text></svg><svg x="3280"><use xlink:href="#a"></use><use xlink:href="#b" x="41.996" y="0"></use><text x="0" y="1.67" class="f">&gt;</text><text x="2.004" y="1.67" class="f">#</text><text x="4.008" y="1.67" class="f">Demonstrate</text><text x="16.032" y="1.67" class="f">that</text><text x="21.041999999999998" y="1.67" class="f">errors</text><text x="28.055999999999997" y="1.67" class="f">are</text><text x="32.064" y="1.67" class="f">handled</text><text x="40.08" y="1.67" class="f">we</text></svg><svg x="3360"><use xlink:href="#a"></use><use xlink:href="#b" x="42.996" y="0"></use><text x="0" y="1.67" class="f">&gt;</text><text x="2.004" y="1.67" class="f">#</text><text x="4.008" y="1.67" class="f">Demonstrate</text><text x="16.032" y="1.67" class="f">that</text><text x="21.041999999999998" y="1.67" class="f">errors</text><text x="28.055999999999997" y="1.67" class="f">are</text><text x="32.064" y="1.67" class="f">handled</text><text x="40.08" y="1.67" class="f">wel</text></svg><svg x="3440"><use xlink:href="#a"></use><use xlink:href="#b" x="43.996" y="0"></use><use xlink:href="#8" y="0"></use></svg><svg x="3520"><use xlink:href="#a"></use><use xlink:href="#b" x="-0.0040000000000000036" y="2.146"></use><use xlink:href="#8" y="0"></use></svg><svg x="3600"><use xlink:href="#a"></use><use xlink:href="#b" x="1.996" y="2.146"></use><use xlink:href="#8" y="0"></use><use xlink:href="#1" y="2.171"></use></svg><svg x="3680"><use xlink:href="#a"></use><use xlink:href="#b" x="-0.0040000000000000036" y="4.317"></use><use xlink:href="#8" y="0"></use><use xlink:href="#1" y="2.171"></use></svg><svg x="3760"><use xlink:href="#a"></use><use xlink:href="#b" x="1.996" y="4.317"></use><use xlink:href="#8" y="0"></use><use xlink:href="#1" y="2.171"></use><use xlink:href="#1" y="4.342"></use></svg><svg x="3840"><use xlink:href="#a"></use><use xlink:href="#b" x="2.996" y="4.317"></use><use xlink:href="#8" y="0"></use><use xlink:href="#1" y="2.171"></use><text x="0" y="6.012" class="f">&gt;</text><text x="2.004" y="6.012" class="f">l</text></svg><svg x="3920"><use xlink:href="#a"></use><use xlink:href="#b" x="3.996" y="4.317"></use><use xlink:href="#8" y="0"></use><use xlink:href="#1" y="2.171"></use><text x="0" y="6.012" class="f">&gt;</text><text x="2.004" y="6.012" class="f">li</text></svg><svg x="4000"><use xlink:href="#a"></use><use xlink:href="#b" x="4.996" y="4.317"></use><use xlink:href="#8" y="0"></use><use xlink:href="#1" y="2.171"></use><text x="0" y="6.012" class="f">&gt;</text><text x="2.004" y="6.012" class="f">lib</text></svg><svg x="4080"><use xlink:href="#a"></use><use xlink:href="#b" x="5.996" y="4.317"></use><use xlink:href="#8" y="0"></use><use xlink:href="#1" y="2.171"></use><text x="0" y="6.012" class="f">&gt;</text><text x="2.004" y="6.012" class="f">libr</text></svg><svg x="4160"><use xlink:href="#a"></use><use xlink:href="#b" x="6.996" y="4.317"></use><use xlink:href="#8" y="0"></use><use xlink:href="#1" y="2.171"></use><text x="0" y="6.012" class="f">&gt;</text><text x="2.004" y="6.012" class="f">libra</text></svg><svg x="4240"><use xlink:href="#a"></use><use xlink:href="#b" x="7.996" y="4.317"></use><use xlink:href="#8" y="0"></use><use xlink:href="#1" y="2.171"></use><text x="0" y="6.012" class="f">&gt;</text><text x="2.004" y="6.012" class="f">librar</text></svg><svg x="4320"><use xlink:href="#a"></use><use xlink:href="#b" x="8.996" y="4.317"></use><use xlink:href="#8" y="0"></use><use xlink:href="#1" y="2.171"></use><text x="0" y="6.012" class="f">&gt;</text><text x="2.004" y="6.012" class="f">library</text></svg><svg x="4400"><use xlink:href="#a"></use><use xlink:href="#b" x="9.996" y="4.317"></use><use xlink:href="#8" y="0"></use><use xlink:href="#1" y="2.171"></use><text x="0" y="6.012" class="f">&gt;</text><text x="2.004" y="6.012" class="f">library(</text></svg><svg x="4480"><use xlink:href="#a"></use><use xlink:href="#b" x="10.996" y="4.317"></use><use xlink:href="#8" y="0"></use><use xlink:href="#1" y="2.171"></use><text x="0" y="6.012" class="f">&gt;</text><text x="2.004" y="6.012" class="f">library(&quot;</text></svg><svg x="4560"><use xlink:href="#a"></use><use xlink:href="#b" x="11.996" y="4.317"></use><use xlink:href="#8" y="0"></use><use xlink:href="#1" y="2.171"></use><text x="0" y="6.012" class="f">&gt;</text><text x="2.004" y="6.012" class="f">library(&quot;n</text></svg><svg x="4640"><use xlink:href="#a"></use><use xlink:href="#b" x="12.996" y="4.317"></use><use xlink:href="#8" y="0"></use><use xlink:href="#1" y="2.171"></use><text x="0" y="6.012" class="f">&gt;</text><text x="2.004" y="6.012" class="f">library(&quot;no</text></svg><svg x="4720"><use xlink:href="#a"></use><use xlink:href="#b" x="13.996" y="4.317"></use><use xlink:href="#8" y="0"></use><use xlink:href="#1" y="2.171"></use><text x="0" y="6.012" class="f">&gt;</text><text x="2.004" y="6.012" class="f">library(&quot;not</text></svg><svg x="4800"><use xlink:href="#a"></use><use xlink:href="#b" x="14.996" y="4.317"></use><use xlink:href="#8" y="0"></use><use xlink:href="#1" y="2.171"></use><text x="0" y="6.012" class="f">&gt;</text><text x="2.004" y="6.012" class="f">library(&quot;not-</text></svg><svg x="4880"><use xlink:href="#a"></use><use xlink:href="#b" x="15.996" y="4.317"></use><use xlink:href="#8" y="0"></use><use xlink:href="#1" y="2.171"></use><text x="0" y="6.012" class="f">&gt;</text><text x="2.004" y="6.012" class="f">library(&quot;not-t</text></svg><svg x="4960"><use xlink:href="#a"></use><use xlink:href="#b" x="16.996" y="4.317"></use><use xlink:href="#8" y="0"></use><use xlink:href="#1" y="2.171"></use><text x="0" y="6.012" class="f">&gt;</text><text x="2.004" y="6.012" class="f">library(&quot;not-th</text></svg><svg x="5040"><use xlink:href="#a"></use><use xlink:href="#b" x="17.996" y="4.317"></use><use xlink:href="#8" y="0"></use><use xlink:href="#1" y="2.171"></use><text x="0" y="6.012" class="f">&gt;</text><text x="2.004" y="6.012" class="f">library(&quot;not-thi</text></svg><svg x="5120"><use xlink:href="#a"></use><use xlink:href="#b" x="18.996" y="4.317"></use><use xlink:href="#8" y="0"></use><use xlink:href="#1" y="2.171"></use><text x="0" y="6.012" class="f">&gt;</text><text x="2.004" y="6.012" class="f">library(&quot;not-this</text></svg><svg x="5200"><use xlink:href="#a"></use><use xlink:href="#b" x="19.996" y="4.317"></use><use xlink:href="#8" y="0"></use><use xlink:href="#1" y="2.171"></use><text x="0" y="6.012" class="f">&gt;</text><text x="2.004" y="6.012" class="f">library(&quot;not-this-</text></svg><svg x="5280"><use xlink:href="#a"></use><use xlink:href="#b" x="20.996" y="4.317"></use><use xlink:href="#8" y="0"></use><use xlink:href="#1" y="2.171"></use><text x="0" y="6.012" class="f">&gt;</text><text x="2.004" y="6.012" class="f">library(&quot;not-this-r</text></svg><svg x="5360"><use xlink:href="#a"></use><use xlink:href="#b" x="21.996" y="4.317"></use><use xlink:href="#8" y="0"></use><use xlink:href="#1" y="2.171"></use><text x="0" y="6.012" class="f">&gt;</text><text x="2.004" y="6.012" class="f">library(&quot;not-this-re</text></svg><svg x="5440"><use xlink:href="#a"></use><use xlink:href="#b" x="22.996" y="4.317"></use><use xlink:href="#8" y="0"></use><use xlink:href="#1" y="2.171"></use><text x="0" y="6.012" class="f">&gt;</text><text x="2.004" y="6.012" class="f">library(&quot;not-this-rea</text></svg><svg x="5520"><use xlink:href="#a"></use><use xlink:href="#b" x="23.996" y="4.317"></use><use xlink:href="#8" y="0"></use><use xlink:href="#1" y="2.171"></use><text x="0" y="6.012" class="f">&gt;</text><text x="2.004" y="6.012" class="f">library(&quot;not-this-real</text></svg><svg x="5600"><use xlink:href="#a"></use><use xlink:href="#b" x="24.996" y="4.317"></use><use xlink:href="#8" y="0"></use><use xlink:href="#1" y="2.171"></use><text x="0" y="6.012" class="f">&gt;</text><text x="2.004" y="6.012" class="f">library(&quot;not-this-reall</text></svg><svg x="5680"><use xlink:href="#a"></use><use xlink:href="#b" x="25.996" y="4.317"></use><use xlink:href="#8" y="0"></use><use xlink:href="#1" y="2.171"></use><text x="0" y="6.012" class="f">&gt;</text><text x="2.004" y="6.012" class="f">library(&quot;not-this-really</text></svg><svg x="5760"><use xlink:href="#a"></use><use xlink:href="#b" x="26.996" y="4.317"></use><use xlink:href="#8" y="0"></use><use xlink:href="#1" y="2.171"></use><text x="0" y="6.012" class="f">&gt;</text><text x="2.004" y="6.012" class="f">library(&quot;not-this-really&quot;</text></svg><svg x="5840"><use xlink:href="#a"></use><use xlink:href="#b" x="27.996" y="4.317"></use><use xlink:href="#8" y="0"></use><use xlink:href="#1" y="2.171"></use><use xlink:href="#9" y="4.342"></use></svg><svg x="5920"><use xlink:href="#a"></use><use xlink:href="#b" x="-0.0040000000000000036" y="6.4879999999999995"></use><use xlink:href="#8" y="0"></use><use xlink:href="#1" y="2.171"></use><use xlink:href="#9" y="4.342"></use></svg><svg x="6000"><use xlink:href="#a"></use><use xlink:href="#b" x="-0.0040000000000000036" y="10.83"></use><use xlink:href="#8" y="0"></use><use xlink:href="#1" y="2.171"></use><use xlink:href="#9" y="4.342"></use><use xlink:href="#10" y="6.513"></use><use xlink:href="#11" y="8.684"></use></svg><svg x="6080"><use xlink:href="#a"></use><use xlink:href="#b" x="1.996" y="10.83"></use><use xlink:href="#8" y="0"></use><use xlink:href="#1" y="2.171"></use><use xlink:href="#9" y="4.342"></use><use xlink:href="#10" y="6.513"></use><use xlink:href="#11" y="8.684"></use><use xlink:href="#1" y="10.855"></use></svg><svg x="6160"><use xlink:href="#a"></use><use xlink:href="#b" x="-0.0040000000000000036" y="13.001"></use><use xlink:href="#8" y="0"></use><use xlink:href="#1" y="2.171"></use><use xlink:href="#9" y="4.342"></use><use xlink:href="#10" y="6.513"></use><use xlink:href="#11" y="8.684"></use><use xlink:href="#1" y="10.855"></use></svg><svg x="6240"><use xlink:href="#a"></use><use xlink:href="#b" x="1.996" y="13.001"></use><use xlink:href="#8" y="0"></use><use xlink:href="#1" y="2.171"></use><use xlink:href="#9" y="4.342"></use><use xlink:href="#10" y="6.513"></use><use xlink:href="#11" y="8.684"></use><use xlink:href="#1" y="10.855"></use><use xlink:href="#1" y="13.026"></use></svg><svg x="6320"><use xlink:href="#a"></use><use xlink:href="#b" x="2.996" y="13.001"></use><use xlink:href="#8" y="0"></use><use xlink:href="#1" y="2.171"></use><use xlink:href="#9" y="4.342"></use><use xlink:href="#10" y="6.513"></use><use xlink:href="#11" y="8.684"></use><use xlink:href="#1" y="10.855"></use><text x="0" y="14.696" class="f">&gt;</text><text x="2.004" y="14.696" class="f">t</text></svg><svg x="6400"><use xlink:href="#a"></use><use xlink:href="#b" x="3.996" y="13.001"></use><use xlink:href="#8" y="0"></use><use xlink:href="#1" y="2.171"></use><use xlink:href="#9" y="4.342"></use><use xlink:href="#10" y="6.513"></use><use xlink:href="#11" y="8.684"></use><use xlink:href="#1" y="10.855"></use><text x="0" y="14.696" class="f">&gt;</text><text x="2.004" y="14.696" class="f">tr</text></svg><svg x="6480"><use xlink:href="#a"></use><use xlink:href="#b" x="4.996" y="13.001"></use><use xlink:href="#8" y="0"></use><use xlink:href="#1" y="2.171"></use><use xlink:href="#9" y="4.342"></use><use xlink:href="#10" y="6.513"></use><use xlink:href="#11" y="8.684"></use><use xlink:href="#1" y="10.855"></use><text x="0" y="14.696" class="f">&gt;</text><text x="2.004" y="14.696" class="f">tra</text></svg><svg x="6560"><use xlink:href="#a"></use><use xlink:href="#b" x="5.996" y="13.001"></use><use xlink:href="#8" y="0"></use><use xlink:href="#1" y="2.171"></use><use xlink:href="#9" y="4.342"></use><use xlink:href="#10" y="6.513"></use><use xlink:href="#11" y="8.684"></use><use xlink:href="#1" y="10.855"></use><text x="0" y="14.696" class="f">&gt;</text><text x="2.004" y="14.696" class="f">trac</text></svg><svg x="6640"><use xlink:href="#a"></use><use xlink:href="#b" x="6.996" y="13.001"></use><use xlink:href="#8" y="0"></use><use xlink:href="#1" y="2.171"></use><use xlink:href="#9" y="4.342"></use><use xlink:href="#10" y="6.513"></use><use xlink:href="#11" y="8.684"></use><use xlink:href="#1" y="10.855"></use><text x="0" y="14.696" class="f">&gt;</text><text x="2.004" y="14.696" class="f">trace</text></svg><svg x="6720"><use xlink:href="#a"></use><use xlink:href="#b" x="7.996" y="13.001"></use><use xlink:href="#8" y="0"></use><use xlink:href="#1" y="2.171"></use><use xlink:href="#9" y="4.342"></use><use xlink:href="#10" y="6.513"></use><use xlink:href="#11" y="8.684"></use><use xlink:href="#1" y="10.855"></use><text x="0" y="14.696" class="f">&gt;</text><text x="2.004" y="14.696" class="f">traceb</text></svg><svg x="6800"><use xlink:href="#a"></use><use xlink:href="#b" x="8.996" y="13.001"></use><use xlink:href="#8" y="0"></use><use xlink:href="#1" y="2.171"></use><use xlink:href="#9" y="4.342"></use><use xlink:href="#10" y="6.513"></use><use xlink:href="#11" y="8.684"></use><use xlink:href="#1" y="10.855"></use><text x="0" y="14.696" class="f">&gt;</text><text x="2.004" y="14.696" class="f">traceba</text></svg><svg x="6880"><use xlink:href="#a"></use><use xlink:href="#b" x="9.996" y="13.001"></use><use xlink:href="#8" y="0"></use><use xlink:href="#1" y="2.171"></use><use xlink:href="#9" y="4.342"></use><use xlink:href="#10" y="6.513"></use><use xlink:href="#11" y="8.684"></use><use xlink:href="#1" y="10.855"></use><text x="0" y="14.696" class="f">&gt;</text><text x="2.004" y="14.696" class="f">tracebac</text></svg><svg x="6960"><use xlink:href="#a"></use><use xlink:href="#b" x="10.996" y="13.001"></use><use xlink:href="#8" y="0"></use><use xlink:href="#1" y="2.171"></use><use xlink:href="#9" y="4.342"></use><use xlink:href="#10" y="6.513"></use><use xlink:href="#11" y="8.684"></use><use xlink:href="#1" y="10.855"></use><text x="0" y="14.696" class="f">&gt;</text><text x="2.004" y="14.696" class="f">traceback</text></svg><svg x="7040"><use xlink:href="#a"></use><use xlink:href="#b" x="11.996" y="13.001"></use><use xlink:href="#8" y="0"></use><use xlink:href="#1" y="2.171"></use><use xlink:href="#9" y="4.342"></use><use xlink:href="#10" y="6.513"></use><use xlink:href="#11" y="8.684"></use><use xlink:href="#1" y="10.855"></use><text x="0" y="14.696" class="f">&gt;</text><text x="2.004" y="14.696" class="f">traceback(</text></svg><svg x="7120"><use xlink:href="#a"></use><use xlink:href="#b" x="12.996" y="13.001"></use><use xlink:href="#8" y="0"></use><use xlink:href="#1" y="2.171"></use><use xlink:href="#9" y="4.342"></use><use xlink:href="#10" y="6.513"></use><use xlink:href="#11" y="8.684"></use><use xlink:href="#1" y="10.855"></use><use xlink:href="#12" y="13.026"></use></svg><svg x="7200"><use xlink:href="#a"></use><use xlink:href="#b" x="-0.0040000000000000036" y="15.171999999999999"></use><use xlink:href="#8" y="0"></use><use xlink:href="#1" y="2.171"></use><use xlink:href="#9" y="4.342"></use><use xlink:href="#10" y="6.513"></use><use xlink:href="#11" y="8.684"></use><use xlink:href="#1" y="10.855"></use><use xlink:href="#12" y="13.026"></use></svg><svg x="7280"><use xlink:href="#a"></use><use xlink:href="#b" x="-0.0040000000000000036" y="19.514000000000003"></use><use xlink:href="#8" y="0"></use><use xlink:href="#1" y="2.171"></use><use xlink:href="#9" y="4.342"></use><use xlink:href="#10" y="6.513"></use><use xlink:href="#11" y="8.684"></use><use xlink:href="#1" y="10.855"></use><use xlink:href="#12" y="13.026"></use><use xlink:href="#13" y="15.197"></use><use xlink:href="#14" y="17.368"></use></svg><svg x="7360"><use xlink:href="#a"></use><use xlink:href="#b" x="1.996" y="19.514000000000003"></use><use xlink:href="#8" y="0"></use><use xlink:href="#1" y="2.171"></use><use xlink:href="#9" y="4.342"></use><use xlink:href="#10" y="6.513"></use><use xlink:href="#11" y="8.684"></use><use xlink:href="#1" y="10.855"></use><use xlink:href="#12" y="13.026"></use><use xlink:href="#13" y="15.197"></use><use xlink:href="#14" y="17.368"></use><use xlink:href="#1" y="19.539"></use></svg><svg x="7440"><use xlink:href="#a"></use><use xlink:href="#b" x="-0.0040000000000000036" y="21.685000000000002"></use><use xlink:href="#8" y="0"></use><use xlink:href="#1" y="2.171"></use><use xlink:href="#9" y="4.342"></use><use xlink:href="#10" y="6.513"></use><use xlink:href="#11" y="8.684"></use><use xlink:href="#1" y="10.855"></use><use xlink:href="#12" y="13.026"></use><use xlink:href="#13" y="15.197"></use><use xlink:href="#14" y="17.368"></use><use xlink:href="#1" y="19.539"></use></svg><svg x="7520"><use xlink:href="#a"></use><use xlink:href="#b" x="1.996" y="21.685000000000002"></use><use xlink:href="#8" y="0"></use><use xlink:href="#1" y="2.171"></use><use xlink:href="#9" y="4.342"></use><use xlink:href="#10" y="6.513"></use><use xlink:href="#11" y="8.684"></use><use xlink:href="#1" y="10.855"></use><use xlink:href="#12" y="13.026"></use><use xlink:href="#13" y="15.197"></use><use xlink:href="#14" y="17.368"></use><use xlink:href="#1" y="19.539"></use><use xlink:href="#1" y="21.71"></use></svg><svg x="7600"><use xlink:href="#a"></use><use xlink:href="#b" x="2.996" y="21.685000000000002"></use><use xlink:href="#8" y="0"></use><use xlink:href="#1" y="2.171"></use><use xlink:href="#9" y="4.342"></use><use xlink:href="#10" y="6.513"></use><use xlink:href="#11" y="8.684"></use><use xlink:href="#1" y="10.855"></use><use xlink:href="#12" y="13.026"></use><use xlink:href="#13" y="15.197"></use><use xlink:href="#14" y="17.368"></use><use xlink:href="#1" y="19.539"></use><text x="0" y="23.380000000000003" class="f">&gt;</text><text x="2.004" y="23.380000000000003" class="f">1</text></svg><svg x="7680"><use xlink:href="#a"></use><use xlink:href="#b" x="3.996" y="21.685000000000002"></use><use xlink:href="#8" y="0"></use><use xlink:href="#1" y="2.171"></use><use xlink:href="#9" y="4.342"></use><use xlink:href="#10" y="6.513"></use><use xlink:href="#11" y="8.684"></use><use xlink:href="#1" y="10.855"></use><use xlink:href="#12" y="13.026"></use><use xlink:href="#13" y="15.197"></use><use xlink:href="#14" y="17.368"></use><use xlink:href="#1" y="19.539"></use><text x="0" y="23.380000000000003" class="f">&gt;</text><text x="2.004" y="23.380000000000003" class="f">1+</text></svg><svg x="7760"><use xlink:href="#a"></use><use xlink:href="#b" x="4.996" y="21.685000000000002"></use><use xlink:href="#8" y="0"></use><use xlink:href="#1" y="2.171"></use><use xlink:href="#9" y="4.342"></use><use xlink:href="#10" y="6.513"></use><use xlink:href="#11" y="8.684"></use><use xlink:href="#1" y="10.855"></use><use xlink:href="#12" y="13.026"></use><use xlink:href="#13" y="15.197"></use><use xlink:href="#14" y="17.368"></use><use xlink:href="#1" y="19.539"></use><use xlink:href="#15" y="21.71"></use></svg><svg x="7840"><use xlink:href="#a"></use><use xlink:href="#b" x="-0.0040000000000000036" y="23.855999999999998"></use><use xlink:href="#8" y="0"></use><use xlink:href="#1" y="2.171"></use><use xlink:href="#9" y="4.342"></use><use xlink:href="#10" y="6.513"></use><use xlink:href="#11" y="8.684"></use><use xlink:href="#1" y="10.855"></use><use xlink:href="#12" y="13.026"></use><use xlink:href="#13" y="15.197"></use><use xlink:href="#14" y="17.368"></use><use xlink:href="#1" y="19.539"></use><use xlink:href="#15" y="21.71"></use></svg><svg x="7920"><use xlink:href="#a"></use><use xlink:href="#b" x="-0.0040000000000000036" y="26.027"></use><use xlink:href="#8" y="0"></use><use xlink:href="#1" y="2.171"></use><use xlink:href="#9" y="4.342"></use><use xlink:href="#10" y="6.513"></use><use xlink:href="#11" y="8.684"></use><use xlink:href="#1" y="10.855"></use><use xlink:href="#12" y="13.026"></use><use xlink:href="#13" y="15.197"></use><use xlink:href="#14" y="17.368"></use><use xlink:href="#1" y="19.539"></use><use xlink:href="#15" y="21.71"></use><use xlink:href="#16" y="23.880999999999997"></use></svg><svg x="8000"><use xlink:href="#a"></use><use xlink:href="#b" x="1.996" y="26.027"></use><use xlink:href="#8" y="0"></use><use xlink:href="#1" y="2.171"></use><use xlink:href="#9" y="4.342"></use><use xlink:href="#10" y="6.513"></use><use xlink:href="#11" y="8.684"></use><use xlink:href="#1" y="10.855"></use><use xlink:href="#12" y="13.026"></use><use xlink:href="#13" y="15.197"></use><use xlink:href="#14" y="17.368"></use><use xlink:href="#1" y="19.539"></use><use xlink:href="#15" y="21.71"></use><use xlink:href="#16" y="23.880999999999997"></use><use xlink:href="#1" y="26.052"></use></svg><svg x="8080"><use xlink:href="#a"></use><use xlink:href="#b" x="1.996" y="26.027"></use><use xlink:href="#8" y="0"></use><use xlink:href="#1" y="2.171"></use><use xlink:href="#9" y="4.342"></use><use xlink:href="#10" y="6.513"></use><use xlink:href="#11" y="8.684"></use><use xlink:href="#1" y="10.855"></use><use xlink:href="#12" y="13.026"></use><use xlink:href="#13" y="15.197"></use><use xlink:href="#14" y="17.368"></use><use xlink:href="#1" y="19.539"></use><use xlink:href="#15" y="21.71"></use><use xlink:href="#16" y="23.880999999999997"></use><use xlink:href="#1" y="26.052"></use></svg></svg></g></g></svg></svg>