<svg xmlns="http://www.w3.org/2000/svg" xmlns:xlink="http://www.w3.org/1999/xlink" width="840" height="277.1"><rect width="840" height="277.1" rx="5" ry="5" class="a"></rect><svg y="0%" x="0%"><circle cx="20" cy="20" r="6" class="b"></circle><circle cx="40" cy="20" r="6" class="c"></circle><circle cx="60" cy="20" r="6" class="d"></circle></svg><svg height="217.10000000000002" viewBox="0 0 80 21.71" width="800" x="15" xmlns="http://www.w3.org/2000/svg" xmlns:xlink="http://www.w3.org/1999/xlink" y="50"><style>.a{fill:rgb(40,45,53)}.b{fill:#ff5f58}.c{fill:#ffbd2e}.d{fill:#18c132}.e{font-family:Monaco,Consolas,Menlo,'Bitstream Vera Sans Mono','Powerline Symbols',monospace}.f{fill:rgb(185,192,203)}.g{fill:transparent}.h{fill:rgb(111,118,131)}.j{animation-duration:8.18469500541687s;animation-iteration-count:infinite;animation-name:i;animation-timing-function:steps(1,end)}@keyframes i{0%{transform:translateX(-0px)}0.5%{transform:translateX(-80px)}25.2%{transform:translateX(-160px)}25.8%{transform:translateX(-240px)}26.7%{transform:translateX(-320px)}27.4%{transform:translateX(-400px)}28.1%{transform:translateX(-480px)}28.8%{transform:translateX(-560px)}29.3%{transform:translateX(-640px)}29.8%{transform:translateX(-720px)}30.5%{transform:translateX(-800px)}31.1%{transform:translateX(-880px)}31.7%{transform:translateX(-960px)}32.2%{transform:translateX(-1040px)}32.5%{transform:translateX(-1120px)}33.1%{transform:translateX(-1200px)}33.7%{transform:translateX(-1280px)}34.6%{transform:translateX(-1360px)}35.4%{transform:translateX(-1440px)}35.9%{transform:translateX(-1520px)}36.6%{transform:translateX(-1600px)}37.4%{transform:translateX(-1680px)}38.1%{transform:translateX(-1760px)}38.4%{transform:translateX(-1840px)}38.4%{transform:translateX(-1920px)}38.5%{transform:translateX(-2000px)}100%{transform:translateX(-2080px)}}</style><g font-size="1.67" class="e"><defs><symbol id="1"><text x="0" y="1.67" class="f">&gt;</text></symbol><symbol id="2"><text x="0" y="1.67" class="f">&gt;</text><text x="2.004" y="1.67" class="f">print(&quot;Hello</text></symbol><symbol id="3"><text x="0" y="1.67" class="f">&gt;</text><text x="2.004" y="1.67" class="f">print(&quot;Hello</text><text x="15.029999999999998" y="1.67" class="f">world!&quot;)</text></symbol><symbol id="4"><text x="0" y="1.67" class="f">[1]</text><text x="4.008" y="1.67" class="f">&quot;Hello</text><text x="11.021999999999998" y="1.67" class="f">world!&quot;</text></symbol><symbol id="a"><rect height="10" width="80" x="0" y="0" class="g"></rect></symbol><symbol id="b"><rect height="2.171" width="1.1022" class="h"></rect></symbol></defs><rect height="21.71" width="80" class="a"></rect><g class="j"><svg x="0" y="0" width="2160"><svg x="0"><use xlink:href="#a"></use><use xlink:href="#b" x="-0.0040000000000000036" y="0"></use></svg><svg x="80"><use xlink:href="#a"></use><use xlink:href="#b" x="1.996" y="0"></use><use xlink:href="#1" y="0"></use></svg><svg x="160"><use xlink:href="#a"></use><use xlink:href="#b" x="2.996" y="0"></use><text x="0" y="1.67" class="f">&gt;</text><text x="2.004" y="1.67" class="f">p</text></svg><svg x="240"><use xlink:href="#a"></use><use xlink:href="#b" x="3.996" y="0"></use><text x="0" y="1.67" class="f">&gt;</text><text x="2.004" y="1.67" class="f">pr</text></svg><svg x="320"><use xlink:href="#a"></use><use xlink:href="#b" x="4.996" y="0"></use><text x="0" y="1.67" class="f">&gt;</text><text x="2.004" y="1.67" class="f">pri</text></svg><svg x="400"><use xlink:href="#a"></use><use xlink:href="#b" x="5.996" y="0"></use><text x="0" y="1.67" class="f">&gt;</text><text x="2.004" y="1.67" class="f">prin</text></svg><svg x="480"><use xlink:href="#a"></use><use xlink:href="#b" x="6.996" y="0"></use><text x="0" y="1.67" class="f">&gt;</text><text x="2.004" y="1.67" class="f">print</text></svg><svg x="560"><use xlink:href="#a"></use><use xlink:href="#b" x="7.996" y="0"></use><text x="0" y="1.67" class="f">&gt;</text><text x="2.004" y="1.67" class="f">print(</text></svg><svg x="640"><use xlink:href="#a"></use><use xlink:href="#b" x="8.996" y="0"></use><text x="0" y="1.67" class="f">&gt;</text><text x="2.004" y="1.67" class="f">print(&quot;</text></svg><svg x="720"><use xlink:href="#a"></use><use xlink:href="#b" x="9.996" y="0"></use><text x="0" y="1.67" class="f">&gt;</text><text x="2.004" y="1.67" class="f">print(&quot;H</text></svg><svg x="800"><use xlink:href="#a"></use><use xlink:href="#b" x="10.996" y="0"></use><text x="0" y="1.67" class="f">&gt;</text><text x="2.004" y="1.67" class="f">print(&quot;He</text></svg><svg x="880"><use xlink:href="#a"></use><use xlink:href="#b" x="11.996" y="0"></use><text x="0" y="1.67" class="f">&gt;</text><text x="2.004" y="1.67" class="f">print(&quot;Hel</text></svg><svg x="960"><use xlink:href="#a"></use><use xlink:href="#b" x="12.996" y="0"></use><text x="0" y="1.67" class="f">&gt;</text><text x="2.004" y="1.67" class="f">print(&quot;Hell</text></svg><svg x="1040"><use xlink:href="#a"></use><use xlink:href="#b" x="13.996" y="0"></use><use xlink:href="#2" y="0"></use></svg><svg x="1120"><use xlink:href="#a"></use><use xlink:href="#b" x="14.996" y="0"></use><use xlink:href="#2" y="0"></use></svg><svg x="1200"><use xlink:href="#a"></use><use xlink:href="#b" x="15.996" y="0"></use><text x="0" y="1.67" class="f">&gt;</text><text x="2.004" y="1.67" class="f">print(&quot;Hello</text><text x="15.029999999999998" y="1.67" class="f">w</text></svg><svg x="1280"><use xlink:href="#a"></use><use xlink:href="#b" x="16.996" y="0"></use><text x="0" y="1.67" class="f">&gt;</text><text x="2.004" y="1.67" class="f">print(&quot;Hello</text><text x="15.029999999999998" y="1.67" class="f">wo</text></svg><svg x="1360"><use xlink:href="#a"></use><use xlink:href="#b" x="17.996" y="0"></use><text x="0" y="1.67" class="f">&gt;</text><text x="2.004" y="1.67" class="f">print(&quot;Hello</text><text x="15.029999999999998" y="1.67" class="f">wor</text></svg><svg x="1440"><use xlink:href="#a"></use><use xlink:href="#b" x="18.996" y="0"></use><text x="0" y="1.67" class="f">&gt;</text><text x="2.004" y="1.67" class="f">print(&quot;Hello</text><text x="15.029999999999998" y="1.67" class="f">worl</text></svg><svg x="1520"><use xlink:href="#a"></use><use xlink:href="#b" x="19.996" y="0"></use><text x="0" y="1.67" class="f">&gt;</text><text x="2.004" y="1.67" class="f">print(&quot;Hello</text><text x="15.029999999999998" y="1.67" class="f">world</text></svg><svg x="1600"><use xlink:href="#a"></use><use xlink:href="#b" x="20.996" y="0"></use><text x="0" y="1.67" class="f">&gt;</text><text x="2.004" y="1.67" class="f">print(&quot;Hello</text><text x="15.029999999999998" y="1.67" class="f">world!</text></svg><svg x="1680"><use xlink:href="#a"></use><use xlink:href="#b" x="21.996" y="0"></use><text x="0" y="1.67" class="f">&gt;</text><text x="2.004" y="1.67" class="f">print(&quot;Hello</text><text x="15.029999999999998" y="1.67" class="f">world!&quot;</text></svg><svg x="1760"><use xlink:href="#a"></use><use xlink:href="#b" x="22.996" y="0"></use><use xlink:href="#3" y="0"></use></svg><svg x="1840"><use xlink:href="#a"></use><use xlink:href="#b" x="-0.0040000000000000036" y="2.146"></use><use xlink:href="#3" y="0"></use></svg><svg x="1920"><use xlink:href="#a"></use><use xlink:href="#b" x="-0.0040000000000000036" y="4.317"></use><use xlink:href="#3" y="0"></use><use xlink:href="#4" y="2.171"></use></svg><svg x="2000"><use xlink:href="#a"></use><use xlink:href="#b" x="1.996" y="4.317"></use><use xlink:href="#3" y="0"></use><use xlink:href="#4" y="2.171"></use><use xlink:href="#1" y="4.342"></use></svg><svg x="2080"><use xlink:href="#a"></use><use xlink:href="#b" x="1.996" y="4.317"></use><use xlink:href="#3" y="0"></use><use xlink:href="#4" y="2.171"></use><use xlink:href="#1" y="4.342"></use></svg></svg></g></g></svg></svg>