<svg xmlns="http://www.w3.org/2000/svg" xmlns:xlink="http://www.w3.org/1999/xlink" width="840" height="83.41999999999999"><rect width="840" height="83.41999999999999" rx="0" ry="0" class="a"></rect><svg height="43.419999999999995" viewBox="0 0 80 4.342" width="800" x="20" xmlns="http://www.w3.org/2000/svg" xmlns:xlink="http://www.w3.org/1999/xlink" y="20"><style>.a{fill:rgb(247,247,247)}.b{font-family:'Fira Code',Monaco,Consolas,Menlo,'Bitstream Vera Sans Mono','Powerline Symbols',monospace}.c{fill:rgb(101,123,131);white-space:pre}.d{fill:transparent}.e{fill:rgb(101,123,131)}.g{animation-duration:7.05931234484358s;animation-iteration-count:infinite;animation-name:f;animation-timing-function:steps(1,end)}@keyframes f{0%{transform:translateX(-0px)}0%{transform:translateX(-80px)}0.4%{transform:translateX(-160px)}1.4%{transform:translateX(-240px)}2%{transform:translateX(-320px)}2.8%{transform:translateX(-400px)}3.4%{transform:translateX(-480px)}3.7%{transform:translateX(-560px)}4.6%{transform:translateX(-640px)}5.6%{transform:translateX(-720px)}6.2%{transform:translateX(-800px)}6.9%{transform:translateX(-880px)}7.9%{transform:translateX(-960px)}8.4%{transform:translateX(-1040px)}9.1%{transform:translateX(-1120px)}9.8%{transform:translateX(-1200px)}10.6%{transform:translateX(-1280px)}11%{transform:translateX(-1360px)}12%{transform:translateX(-1440px)}12.9%{transform:translateX(-1520px)}13.7%{transform:translateX(-1600px)}14.5%{transform:translateX(-1680px)}15%{transform:translateX(-1760px)}15%{transform:translateX(-1840px)}15%{transform:translateX(-1920px)}15%{transform:translateX(-2000px)}15%{transform:translateX(-2080px)}100%{transform:translateX(-2160px)}}</style><g font-family="&#x27;Fira Code&#x27;,Monaco,Consolas,Menlo,&#x27;Bitstream Vera Sans Mono&#x27;,&#x27;Powerline Symbols&#x27;,monospace" font-size="1.67" class="b"><defs><symbol id="1"><text font-size="1.67" x="0" y="1.67" class="c">&gt;</text><text font-size="1.67" x="2.004" y="1.67" class="c">print(&quot;Hello</text></symbol><symbol id="2"><text font-size="1.67" x="0" y="1.67" class="c">&gt;</text><text font-size="1.67" x="2.004" y="1.67" class="c">print(&quot;Hello</text><text font-size="1.67" x="15.029999999999998" y="1.67" class="c">world!&quot;)</text></symbol><symbol id="3"><text font-size="1.67" x="0" y="1.67" class="c">[1]</text><text font-size="1.67" x="4.008" y="1.67" class="c">&quot;Hello</text><text font-size="1.67" x="11.021999999999998" y="1.67" class="c">world!&quot;</text></symbol><symbol id="a"><rect height="2" width="80" x="0" y="0" class="d"></rect></symbol><symbol id="b"><rect height="2.171" width="1.1022" class="e"></rect></symbol></defs><rect height="4.342" width="80" class="a"></rect><g class="g"><svg x="0" y="0" width="2240"><svg x="0"><use xlink:href="#a"></use><use xlink:href="#b" x="-0.0040000000000000036" y="0"></use></svg><svg x="80"><use xlink:href="#a"></use><use xlink:href="#b" x="1.996" y="0"></use><text font-size="1.67" x="0" y="1.67" class="c">&gt;</text></svg><svg x="160"><use xlink:href="#a"></use><use xlink:href="#b" x="2.996" y="0"></use><text font-size="1.67" x="0" y="1.67" class="c">&gt;</text><text font-size="1.67" x="2.004" y="1.67" class="c">p</text></svg><svg x="240"><use xlink:href="#a"></use><use xlink:href="#b" x="3.996" y="0"></use><text font-size="1.67" x="0" y="1.67" class="c">&gt;</text><text font-size="1.67" x="2.004" y="1.67" class="c">pr</text></svg><svg x="320"><use xlink:href="#a"></use><use xlink:href="#b" x="4.996" y="0"></use><text font-size="1.67" x="0" y="1.67" class="c">&gt;</text><text font-size="1.67" x="2.004" y="1.67" class="c">pri</text></svg><svg x="400"><use xlink:href="#a"></use><use xlink:href="#b" x="5.996" y="0"></use><text font-size="1.67" x="0" y="1.67" class="c">&gt;</text><text font-size="1.67" x="2.004" y="1.67" class="c">prin</text></svg><svg x="480"><use xlink:href="#a"></use><use xlink:href="#b" x="6.996" y="0"></use><text font-size="1.67" x="0" y="1.67" class="c">&gt;</text><text font-size="1.67" x="2.004" y="1.67" class="c">print</text></svg><svg x="560"><use xlink:href="#a"></use><use xlink:href="#b" x="7.996" y="0"></use><text font-size="1.67" x="0" y="1.67" class="c">&gt;</text><text font-size="1.67" x="2.004" y="1.67" class="c">print(</text></svg><svg x="640"><use xlink:href="#a"></use><use xlink:href="#b" x="8.996" y="0"></use><text font-size="1.67" x="0" y="1.67" class="c">&gt;</text><text font-size="1.67" x="2.004" y="1.67" class="c">print(&quot;</text></svg><svg x="720"><use xlink:href="#a"></use><use xlink:href="#b" x="9.996" y="0"></use><text font-size="1.67" x="0" y="1.67" class="c">&gt;</text><text font-size="1.67" x="2.004" y="1.67" class="c">print(&quot;H</text></svg><svg x="800"><use xlink:href="#a"></use><use xlink:href="#b" x="10.996" y="0"></use><text font-size="1.67" x="0" y="1.67" class="c">&gt;</text><text font-size="1.67" x="2.004" y="1.67" class="c">print(&quot;He</text></svg><svg x="880"><use xlink:href="#a"></use><use xlink:href="#b" x="11.996" y="0"></use><text font-size="1.67" x="0" y="1.67" class="c">&gt;</text><text font-size="1.67" x="2.004" y="1.67" class="c">print(&quot;Hel</text></svg><svg x="960"><use xlink:href="#a"></use><use xlink:href="#b" x="12.996" y="0"></use><text font-size="1.67" x="0" y="1.67" class="c">&gt;</text><text font-size="1.67" x="2.004" y="1.67" class="c">print(&quot;Hell</text></svg><svg x="1040"><use xlink:href="#a"></use><use xlink:href="#b" x="13.996" y="0"></use><use xlink:href="#1" y="0"></use></svg><svg x="1120"><use xlink:href="#a"></use><use xlink:href="#b" x="14.996" y="0"></use><use xlink:href="#1" y="0"></use></svg><svg x="1200"><use xlink:href="#a"></use><use xlink:href="#b" x="15.996" y="0"></use><text font-size="1.67" x="0" y="1.67" class="c">&gt;</text><text font-size="1.67" x="2.004" y="1.67" class="c">print(&quot;Hello</text><text font-size="1.67" x="15.029999999999998" y="1.67" class="c">w</text></svg><svg x="1280"><use xlink:href="#a"></use><use xlink:href="#b" x="16.996" y="0"></use><text font-size="1.67" x="0" y="1.67" class="c">&gt;</text><text font-size="1.67" x="2.004" y="1.67" class="c">print(&quot;Hello</text><text font-size="1.67" x="15.029999999999998" y="1.67" class="c">wo</text></svg><svg x="1360"><use xlink:href="#a"></use><use xlink:href="#b" x="17.996" y="0"></use><text font-size="1.67" x="0" y="1.67" class="c">&gt;</text><text font-size="1.67" x="2.004" y="1.67" class="c">print(&quot;Hello</text><text font-size="1.67" x="15.029999999999998" y="1.67" class="c">wor</text></svg><svg x="1440"><use xlink:href="#a"></use><use xlink:href="#b" x="18.996" y="0"></use><text font-size="1.67" x="0" y="1.67" class="c">&gt;</text><text font-size="1.67" x="2.004" y="1.67" class="c">print(&quot;Hello</text><text font-size="1.67" x="15.029999999999998" y="1.67" class="c">worl</text></svg><svg x="1520"><use xlink:href="#a"></use><use xlink:href="#b" x="19.996" y="0"></use><text font-size="1.67" x="0" y="1.67" class="c">&gt;</text><text font-size="1.67" x="2.004" y="1.67" class="c">print(&quot;Hello</text><text font-size="1.67" x="15.029999999999998" y="1.67" class="c">world</text></svg><svg x="1600"><use xlink:href="#a"></use><use xlink:href="#b" x="20.996" y="0"></use><text font-size="1.67" x="0" y="1.67" class="c">&gt;</text><text font-size="1.67" x="2.004" y="1.67" class="c">print(&quot;Hello</text><text font-size="1.67" x="15.029999999999998" y="1.67" class="c">world!</text></svg><svg x="1680"><use xlink:href="#a"></use><use xlink:href="#b" x="21.996" y="0"></use><text font-size="1.67" x="0" y="1.67" class="c">&gt;</text><text font-size="1.67" x="2.004" y="1.67" class="c">print(&quot;Hello</text><text font-size="1.67" x="15.029999999999998" y="1.67" class="c">world!&quot;</text></svg><svg x="1760"><use xlink:href="#a"></use><use xlink:href="#b" x="22.996" y="0"></use><use xlink:href="#2" y="0"></use></svg><svg x="1840"><use xlink:href="#a"></use><use xlink:href="#b" x="-0.0040000000000000036" y="2.146"></use><use xlink:href="#2" y="0"></use></svg><svg x="1920"><use xlink:href="#a"></use><use xlink:href="#b" x="2.996" y="2.146"></use><use xlink:href="#2" y="0"></use><text font-size="1.67" x="0" y="3.8409999999999997" class="c">[1]</text></svg><svg x="2000"><use xlink:href="#a"></use><use xlink:href="#b" x="17.996" y="2.146"></use><use xlink:href="#2" y="0"></use><use xlink:href="#3" y="2.171"></use></svg><svg x="2080"><use xlink:href="#a"></use><use xlink:href="#b" x="17.996" y="2.146"></use><use xlink:href="#2" y="0"></use><use xlink:href="#3" y="2.171"></use></svg><svg x="2160"><use xlink:href="#a"></use><use xlink:href="#b" x="17.996" y="2.146"></use><use xlink:href="#2" y="0"></use><use xlink:href="#3" y="2.171"></use></svg></svg></g></g></svg></svg>